<?xml version="1.0" encoding="UTF-8"?>
<!DOCTYPE svg PUBLIC "-//W3C//DTD SVG 1.1//EN" "http://www.w3.org/Graphics/SVG/1.1/DTD/svg11.dtd">
<svg xmlns="http://www.w3.org/2000/svg" version="1.1" width="200px" height="250px" style="shape-rendering:geometricPrecision; text-rendering:geometricPrecision; image-rendering:optimizeQuality; fill-rule:evenodd; clip-rule:evenodd" xmlns:xlink="http://www.w3.org/1999/xlink">
<g><path style="opacity:1" fill="#fefefe" d="M -0.5,-0.5 C 66.1667,-0.5 132.833,-0.5 199.5,-0.5C 199.5,82.8333 199.5,166.167 199.5,249.5C 132.833,249.5 66.1667,249.5 -0.5,249.5C -0.5,166.167 -0.5,82.8333 -0.5,-0.5 Z"/></g>
<g><path style="opacity:1" fill="#141414" d="M 146.5,181.5 C 146.5,181.167 146.5,180.833 146.5,180.5C 158.774,164.294 169.274,146.96 178,128.5C 182.893,116.261 184.559,103.594 183,90.5C 179.021,82.8999 172.855,77.7332 164.5,75C 132.536,67.7895 100.536,67.7895 68.5,75C 59.9879,78.4653 51.3212,80.2987 42.5,80.5C 44.3159,79.1851 45.9825,77.6851 47.5,76C 72.212,69.4364 97.3786,65.2697 123,63.5C 138.655,64.0526 154.155,65.8859 169.5,69C 176.19,72.1922 182.19,76.3588 187.5,81.5C 188.281,82.7287 188.781,84.062 189,85.5C 189.667,91.5 189.667,97.5 189,103.5C 187.352,109.427 186.018,115.427 185,121.5C 175.41,143.706 162.576,163.706 146.5,181.5 Z"/></g>
<g><path style="opacity:1" fill="#101010" d="M 114.5,212.5 C 113.494,212.938 113.494,213.604 114.5,214.5C 118.646,215.647 122.98,215.814 127.5,215C 148.566,211.577 169.566,208.743 190.5,206.5C 189.018,208.483 187.351,210.316 185.5,212C 177.382,215.292 169.048,217.959 160.5,220C 161.308,220.308 161.975,220.808 162.5,221.5C 161.687,222.814 160.687,223.981 159.5,225C 152.194,225.942 144.86,226.442 137.5,226.5C 133.298,226.817 129.298,226.483 125.5,225.5C 126.673,223.496 128.34,221.996 130.5,221C 141.651,219.821 152.651,217.988 163.5,215.5C 165.179,215.108 166.846,214.608 168.5,214C 166.288,213.211 164.288,213.378 162.5,214.5C 145.787,216.673 129.121,219.173 112.5,222C 110.65,224.018 108.65,225.851 106.5,227.5C 105.719,226.271 105.219,224.938 105,223.5C 104.333,224.167 103.667,224.833 103,225.5C 103.245,219.575 103.578,213.575 104,207.5C 108.059,197.715 112.392,188.048 117,178.5C 117.915,171.908 119.581,165.575 122,159.5C 123.351,157.981 124.851,156.648 126.5,155.5C 126.833,156.167 127.167,156.833 127.5,157.5C 123.791,175.964 119.458,194.297 114.5,212.5 Z"/></g>
<g><path style="opacity:1" fill="#5d5d5d" d="M 146.5,180.5 C 146.5,180.833 146.5,181.167 146.5,181.5C 142.5,186.167 138.167,190.5 133.5,194.5C 137.105,189.226 141.438,184.559 146.5,180.5 Z"/></g>
<g><path style="opacity:1" fill="#373737" d="M 133.5,194.5 C 127.891,201.778 121.558,208.444 114.5,214.5C 113.494,213.604 113.494,212.938 114.5,212.5C 120.833,206.5 127.167,200.5 133.5,194.5 Z"/></g>
<g><path style="opacity:1" fill="#9a9a9a" d="M 162.5,214.5 C 164.288,213.378 166.288,213.211 168.5,214C 166.846,214.608 165.179,215.108 163.5,215.5C 163.5,214.833 163.167,214.5 162.5,214.5 Z"/></g>
<g><path style="opacity:1" fill="#6d6d6d" d="M 125.5,225.5 C 129.298,226.483 133.298,226.817 137.5,226.5C 133.317,227.811 128.984,227.811 124.5,226.5C 124.624,225.893 124.957,225.56 125.5,225.5 Z"/></g>
</svg>
