<?xml version="1.0" encoding="UTF-8"?>
<!DOCTYPE svg PUBLIC "-//W3C//DTD SVG 1.1//EN" "http://www.w3.org/Graphics/SVG/1.1/DTD/svg11.dtd">
<svg xmlns="http://www.w3.org/2000/svg" version="1.1" width="623px" height="472px" style="shape-rendering:geometricPrecision; text-rendering:geometricPrecision; image-rendering:optimizeQuality; fill-rule:evenodd; clip-rule:evenodd" xmlns:xlink="http://www.w3.org/1999/xlink">
<g><path style="opacity:1" fill="#fefefe" d="M -0.5,-0.5 C 207.167,-0.5 414.833,-0.5 622.5,-0.5C 622.5,156.833 622.5,314.167 622.5,471.5C 414.833,471.5 207.167,471.5 -0.5,471.5C -0.5,314.167 -0.5,156.833 -0.5,-0.5 Z"/></g>
<g><path style="opacity:1" fill="#121212" d="M 240.5,61.5 C 240.578,68.7003 241.245,75.7003 242.5,82.5C 243.111,85.6623 243.778,88.829 244.5,92C 240.365,99.2491 237.699,98.9158 236.5,91C 235.314,80.5282 234.481,70.0282 234,59.5C 233.333,57.5 232.667,55.5 232,53.5C 227.618,55.0962 223.118,56.4295 218.5,57.5C 220.662,52.0878 224.995,49.0878 231.5,48.5C 231.221,45.8822 230.554,43.3822 229.5,41C 231.017,39.3149 232.684,37.8149 234.5,36.5C 236.821,39.3833 237.988,42.7167 238,46.5C 239.171,45.1068 240.671,44.2735 242.5,44C 249.394,43.1854 256.061,41.5187 262.5,39C 267.833,38.3333 273.167,38.3333 278.5,39C 281.71,41.104 285.043,42.9373 288.5,44.5C 296.012,43.5987 303.512,42.5987 311,41.5C 312.833,41.8333 314.667,42.1667 316.5,42.5C 315.352,44.1487 314.019,45.6487 312.5,47C 305.782,47.2254 299.115,47.8921 292.5,49C 301.218,57.5416 306.718,67.7083 309,79.5C 307.938,80.8993 306.605,81.8993 305,82.5C 300.824,76.1508 297.157,69.4842 294,62.5C 290.535,58.0332 286.702,53.8666 282.5,50C 269.127,50.241 255.794,51.241 242.5,53C 241.5,53.3333 240.5,53.6667 239.5,54C 240.435,56.3806 240.768,58.8806 240.5,61.5 Z"/></g>
<g><path style="opacity:1" fill="#ebebeb" d="M 257.5,46.5 C 255.901,46.7678 254.568,46.4345 253.5,45.5C 259.772,44.229 266.106,43.729 272.5,44C 272.833,44.3333 273.167,44.6667 273.5,45C 268.178,45.6841 262.844,46.1841 257.5,46.5 Z"/></g>
<g><path style="opacity:1" fill="#696969" d="M 253.5,45.5 C 254.568,46.4345 255.901,46.7678 257.5,46.5C 255.372,47.6291 253.039,47.7958 250.5,47C 251.527,46.4867 252.527,45.9867 253.5,45.5 Z"/></g>
<g><path style="opacity:1" fill="#0c0c0c" d="M 386.5,102.5 C 385.957,102.56 385.624,102.893 385.5,103.5C 388.086,104.48 390.753,104.813 393.5,104.5C 404.081,105.026 413.414,108.693 421.5,115.5C 420.129,117.705 418.296,119.372 416,120.5C 408.481,113.661 399.647,110.161 389.5,110C 401.572,117.358 414.572,122.358 428.5,125C 432.176,127.505 436.176,129.338 440.5,130.5C 443.089,128.255 445.756,125.922 448.5,123.5C 449.429,124.689 449.762,126.022 449.5,127.5C 460.247,124.813 470.914,121.813 481.5,118.5C 481.456,121.442 479.789,123.609 476.5,125C 468.972,126.767 461.638,129.1 454.5,132C 456.804,132.895 459.138,133.729 461.5,134.5C 464.625,138.122 467.125,142.122 469,146.5C 474.06,160.075 477.227,174.075 478.5,188.5C 479.06,190.801 479.56,193.134 480,195.5C 480.824,186.324 480.657,177.324 479.5,168.5C 477.19,154.924 476.357,141.258 477,127.5C 478.806,124.316 480.806,123.983 483,126.5C 483.625,136.836 484.292,147.169 485,157.5C 493.861,196.727 499.195,236.393 501,276.5C 495.103,282.07 488.937,287.237 482.5,292C 483.624,292.249 484.624,292.749 485.5,293.5C 483.886,296.284 481.552,298.118 478.5,299C 450.66,303.368 422.66,306.368 394.5,308C 391.728,308.526 389.062,309.359 386.5,310.5C 388.629,322.82 390.796,335.154 393,347.5C 393.308,348.308 393.808,348.975 394.5,349.5C 399.6,346.964 399.767,347.631 395,351.5C 394.251,352.635 394.417,353.635 395.5,354.5C 403.817,350.751 412.484,347.917 421.5,346C 439.207,343.544 456.874,341.211 474.5,339C 472.333,341.167 470.167,343.333 468,345.5C 444.837,346.078 422.003,349.578 399.5,356C 396.707,356.744 395.207,358.577 395,361.5C 393.961,362.71 392.794,363.71 391.5,364.5C 390.833,364.5 390.167,364.5 389.5,364.5C 389.923,356.786 387.59,355.286 382.5,360C 383.308,360.308 383.975,360.808 384.5,361.5C 383.476,362.852 382.476,364.185 381.5,365.5C 380.041,365.433 378.708,365.766 377.5,366.5C 375.05,366.298 372.717,366.631 370.5,367.5C 362.903,365.533 354.903,364.866 346.5,365.5C 339.476,365.392 332.476,364.892 325.5,364C 318.958,362.201 312.291,361.034 305.5,360.5C 306.879,359.137 306.713,358.137 305,357.5C 303.155,356.244 301.155,355.244 299,354.5C 298.235,354.57 297.735,354.903 297.5,355.5C 296.5,355.833 295.833,356.5 295.5,357.5C 286.525,362.329 278.192,368.162 270.5,375C 268.782,375.346 267.115,375.846 265.5,376.5C 264.479,375.998 264.312,375.332 265,374.5C 269.022,369.979 272.856,365.312 276.5,360.5C 275.277,359.386 273.944,359.219 272.5,360C 270.044,361.711 267.377,363.044 264.5,364C 265.357,364.689 266.023,365.522 266.5,366.5C 265.352,368.149 264.019,369.649 262.5,371C 260.034,370.93 257.7,371.096 255.5,371.5C 246.517,367.01 237.85,362.01 229.5,356.5C 229.44,355.957 229.107,355.624 228.5,355.5C 227.189,359.984 227.189,364.317 228.5,368.5C 229.451,382.155 229.618,395.822 229,409.5C 227.629,411.041 226.129,412.375 224.5,413.5C 223.833,411.167 223.167,408.833 222.5,406.5C 221.778,387.846 221.278,369.179 221,350.5C 217.887,347.387 214.721,344.221 211.5,341C 207.939,339.39 204.606,337.557 201.5,335.5C 202.833,333.5 204.5,331.833 206.5,330.5C 210.961,332.564 215.294,334.898 219.5,337.5C 220.66,333.541 220.827,329.541 220,325.5C 216.531,329.417 213.364,329.084 210.5,324.5C 212.879,319.03 216.046,318.363 220,322.5C 220.423,315.491 220.256,308.491 219.5,301.5C 219.808,299.076 219.474,296.743 218.5,294.5C 217.893,294.624 217.56,294.957 217.5,295.5C 217.718,278.346 217.384,261.012 216.5,243.5C 207.963,248.133 206.963,247.3 213.5,241C 215.025,239.991 216.692,239.491 218.5,239.5C 218.32,235.153 220.153,231.819 224,229.5C 223.745,232.082 223.578,234.748 223.5,237.5C 234.695,236.385 245.695,234.218 256.5,231C 262.653,225.047 266.653,217.881 268.5,209.5C 265.784,209.678 263.117,210.178 260.5,211C 253.365,214.765 246.031,217.265 238.5,218.5C 240.316,217.185 241.983,215.685 243.5,214C 249.976,212.063 256.309,209.73 262.5,207C 263.833,205.667 265.167,204.333 266.5,203C 269.57,203.992 272.57,203.659 275.5,202C 288.601,196.789 301.934,192.122 315.5,188C 316.943,186.933 318.276,185.766 319.5,184.5C 320.696,184.846 320.696,185.346 319.5,186C 320.448,186.483 321.448,186.649 322.5,186.5C 321.255,179.541 320.755,172.541 321,165.5C 323.503,163.52 325.336,161.187 326.5,158.5C 324.516,158.383 322.85,159.05 321.5,160.5C 318.456,165.792 316.29,171.459 315,177.5C 313.5,179 312,180.5 310.5,182C 305.211,181.462 299.878,181.795 294.5,183C 286.677,185.479 278.677,187.145 270.5,188C 269.123,190.301 267.456,190.801 265.5,189.5C 263.5,188.833 261.5,188.167 259.5,187.5C 260.812,186.855 261.812,185.855 262.5,184.5C 260.876,183.131 260.376,181.464 261,179.5C 262.333,178.167 263.667,176.833 265,175.5C 267.406,177.983 269.573,180.65 271.5,183.5C 284.225,181.319 296.892,178.819 309.5,176C 310.79,173.19 311.957,170.357 313,167.5C 313.497,165.19 313.663,162.857 313.5,160.5C 279.893,162.855 246.559,167.189 213.5,173.5C 212.5,173.167 211.5,172.833 210.5,172.5C 212.316,171.185 213.983,169.685 215.5,168C 247.997,162.404 280.663,158.237 313.5,155.5C 316.66,146.382 321.327,138.049 327.5,130.5C 326.667,128.833 325.833,127.167 325,125.5C 322.688,128.979 319.854,131.979 316.5,134.5C 315.625,131.454 314.625,128.454 313.5,125.5C 312.28,126.711 311.113,126.711 310,125.5C 308.451,121.01 306.617,116.677 304.5,112.5C 297.561,114.108 290.561,115.608 283.5,117C 269.741,118.474 256.074,120.141 242.5,122C 243.833,120.667 245.167,119.333 246.5,118C 262.847,112.276 279.514,107.442 296.5,103.5C 297.167,103.667 297.833,103.833 298.5,104C 296.772,106.582 294.439,108.082 291.5,108.5C 288.546,109.428 285.546,110.261 282.5,111C 287.043,111.372 291.377,110.872 295.5,109.5C 297.861,109.326 300.194,108.993 302.5,108.5C 301.778,103.511 301.612,98.5107 302,93.5C 304.295,90.2026 306.962,87.2026 310,84.5C 311.833,80.8333 313.667,77.1667 315.5,73.5C 312.228,68.4797 313.228,64.4797 318.5,61.5C 319.971,62.3805 320.804,63.7139 321,65.5C 325.75,60.885 330.917,56.885 336.5,53.5C 338.27,56.1934 338.937,59.1934 338.5,62.5C 344.823,61.3725 345.823,58.5392 341.5,54C 342.608,51.8876 344.108,50.0542 346,48.5C 348.54,50.7047 350.707,53.2047 352.5,56C 354.467,55.76 356.3,54.9266 358,53.5C 360.352,55.6044 362.852,57.6044 365.5,59.5C 366.646,58.8551 367.646,58.0217 368.5,57C 374.044,56.724 379.377,55.5573 384.5,53.5C 388.445,54.4728 391.778,56.4728 394.5,59.5C 393.408,61.5958 391.741,62.9292 389.5,63.5C 386.529,61.7664 383.363,60.4331 380,59.5C 378.373,59.6251 376.873,60.1251 375.5,61C 378.529,61.539 381.529,62.2057 384.5,63C 386.377,65.1058 388.71,66.4391 391.5,67C 392.833,68 392.833,69 391.5,70C 394.745,73.8921 397.412,78.2255 399.5,83C 398,85.8333 395.833,88 393,89.5C 387.255,87.0452 382.088,83.7118 377.5,79.5C 377.167,80 376.833,80.5 376.5,81C 380.482,87.1465 384.815,92.9799 389.5,98.5C 388.476,99.8518 387.476,101.185 386.5,102.5 Z"/></g>
<g><path style="opacity:1" fill="#101010" d="M 201.5,55.5 C 208.586,73.9226 212.92,93.2559 214.5,113.5C 216.104,116.758 218.437,117.091 221.5,114.5C 221.833,114.833 222.167,115.167 222.5,115.5C 219.407,120.167 215.241,122.167 210,121.5C 207.744,111.957 206.077,102.29 205,92.5C 202.56,84.1939 200.227,75.8606 198,67.5C 196.593,62.6427 197.76,58.6427 201.5,55.5 Z"/></g>
<g><path style="opacity:1" fill="#0a0a0a" d="M 243.5,73.5 C 242.908,70.8728 242.575,68.2062 242.5,65.5C 244.148,64.1902 245.814,62.8569 247.5,61.5C 249.878,71.7605 252.045,82.0938 254,92.5C 255.609,97.707 253.776,100.707 248.5,101.5C 247.348,92.0739 245.681,82.7406 243.5,73.5 Z"/></g>
<g><path style="opacity:1" fill="#f4f4f4" d="M 327.5,61.5 C 328.573,62.2506 328.74,63.2506 328,64.5C 326.71,66.792 325.043,68.792 323,70.5C 322.333,69.5 322.333,68.5 323,67.5C 325.127,65.8863 326.627,63.8863 327.5,61.5 Z"/></g>
<g><path style="opacity:1" fill="#eaeaea" d="M 343.5,64.5 C 344.873,64.3433 346.207,64.51 347.5,65C 345.598,66.3011 343.598,66.9678 341.5,67C 342.381,66.2917 343.047,65.4584 343.5,64.5 Z"/></g>
<g><path style="opacity:1" fill="#a5a5a5" d="M 240.5,61.5 C 241.167,62.8333 241.833,64.1667 242.5,65.5C 242.575,68.2062 242.908,70.8728 243.5,73.5C 242.523,76.2869 242.19,79.2869 242.5,82.5C 241.245,75.7003 240.578,68.7003 240.5,61.5 Z"/></g>
<g><path style="opacity:1" fill="#b9b9b9" d="M 324.5,70.5 C 325.776,71.3864 325.776,72.3864 324.5,73.5C 323.438,72.5754 323.438,71.5754 324.5,70.5 Z"/></g>
<g><path style="opacity:1" fill="#878787" d="M 342.5,81.5 C 343.598,82.6009 343.765,83.9343 343,85.5C 341.232,84.3181 341.065,82.9848 342.5,81.5 Z"/></g>
<g><path style="opacity:1" fill="#e7e7e7" d="M 358.5,111.5 C 357.833,111.5 357.167,111.5 356.5,111.5C 355.328,106.841 354.495,102.174 354,97.5C 356.42,101.839 357.92,106.506 358.5,111.5 Z"/></g>
<g><path style="opacity:1" fill="#767676" d="M 386.5,102.5 C 388.833,103.167 391.167,103.833 393.5,104.5C 390.753,104.813 388.086,104.48 385.5,103.5C 385.624,102.893 385.957,102.56 386.5,102.5 Z"/></g>
<g><path style="opacity:1" fill="#8f8f8f" d="M 327.5,103.5 C 328.643,106.976 328.81,110.642 328,114.5C 327.394,111.57 326.56,108.737 325.5,106C 326.381,105.292 327.047,104.458 327.5,103.5 Z"/></g>
<g><path style="opacity:1" fill="#f1f1f1" d="M 383.5,114.5 C 380.67,115.937 378.003,115.604 375.5,113.5C 374.559,111.534 373.559,109.534 372.5,107.5C 374.359,104.981 376.359,104.981 378.5,107.5C 378.641,111.051 380.308,113.384 383.5,114.5 Z"/></g>
<g><path style="opacity:1" fill="#878787" d="M 291.5,108.5 C 292.568,109.434 293.901,109.768 295.5,109.5C 291.377,110.872 287.043,111.372 282.5,111C 285.546,110.261 288.546,109.428 291.5,108.5 Z"/></g>
<g><path style="opacity:1" fill="#9c9c9c" d="M 356.5,111.5 C 357.167,111.5 357.833,111.5 358.5,111.5C 361.372,114.262 361.039,116.596 357.5,118.5C 357.72,116.334 357.387,114.001 356.5,111.5 Z"/></g>
<g><path style="opacity:1" fill="#eeeeee" d="M 366.5,113.5 C 369.086,116.779 368.086,117.946 363.5,117C 364.71,115.961 365.71,114.794 366.5,113.5 Z"/></g>
<g><path style="opacity:1" fill="#717171" d="M 375.5,113.5 C 378.003,115.604 380.67,115.937 383.5,114.5C 384.289,114.783 384.956,115.283 385.5,116C 382.183,116.498 378.85,116.665 375.5,116.5C 375.5,115.5 375.5,114.5 375.5,113.5 Z"/></g>
<g><path style="opacity:1" fill="#bababa" d="M 344.5,114.5 C 347.443,116.048 348.443,118.382 347.5,121.5C 345.146,119.754 344.146,117.421 344.5,114.5 Z"/></g>
<g><path style="opacity:1" fill="#dddddd" d="M 334.5,117.5 C 335.339,118.641 336.006,119.974 336.5,121.5C 332.241,122.32 331.574,120.986 334.5,117.5 Z"/></g>
<g><path style="opacity:1" fill="#161616" d="M 273.5,134.5 C 272.527,132.052 272.194,129.385 272.5,126.5C 278.296,118.445 280.129,119.779 278,130.5C 276.629,132.041 275.129,133.375 273.5,134.5 Z"/></g>
<g><path style="opacity:1" fill="#fcfcfc" d="M 364.5,121.5 C 385.521,120.126 405.521,123.96 424.5,133C 399.797,138.562 375.131,144.562 350.5,151C 344.82,151.445 339.154,151.945 333.5,152.5C 334.307,144.908 332.474,143.908 328,149.5C 327.88,152.675 326.38,154.175 323.5,154C 325.928,149.138 328.594,144.472 331.5,140C 336.227,138.941 339.394,136.108 341,131.5C 348.145,126.339 355.978,123.005 364.5,121.5 Z"/></g>
<g><path style="opacity:1" fill="#222222" d="M 288.5,124.5 C 289.649,124.791 290.316,125.624 290.5,127C 289.473,130.202 287.473,132.702 284.5,134.5C 283.167,132.5 283.167,130.5 284.5,128.5C 286.188,127.479 287.521,126.145 288.5,124.5 Z"/></g>
<g><path style="opacity:1" fill="#151515" d="M 265.5,147.5 C 264.511,142.025 264.178,136.358 264.5,130.5C 266.127,128.37 267.96,126.37 270,124.5C 270.667,130.833 270.667,137.167 270,143.5C 268.629,145.041 267.129,146.375 265.5,147.5 Z"/></g>
<g><path style="opacity:1" fill="#7a7a7a" d="M 272.5,126.5 C 272.194,129.385 272.527,132.052 273.5,134.5C 273.44,135.043 273.107,135.376 272.5,135.5C 271.197,132.355 271.197,129.355 272.5,126.5 Z"/></g>
<g><path style="opacity:1" fill="#7f7f7f" d="M 336.5,128.5 C 341.532,128.332 341.699,129.332 337,131.5C 336.517,130.552 336.351,129.552 336.5,128.5 Z"/></g>
<g><path style="opacity:1" fill="#7c7c7c" d="M 264.5,130.5 C 264.178,136.358 264.511,142.025 265.5,147.5C 265.44,148.043 265.107,148.376 264.5,148.5C 263.183,142.346 263.183,136.346 264.5,130.5 Z"/></g>
<g><path style="opacity:1" fill="#fafafa" d="M 431.5,159.5 C 418.141,171.861 404.807,184.195 391.5,196.5C 388.721,197.617 388.388,198.783 390.5,200C 389.748,200.671 389.414,201.504 389.5,202.5C 387.284,203.203 385.451,204.536 384,206.5C 381.92,209.065 380.087,211.732 378.5,214.5C 376.704,215.793 375.037,217.293 373.5,219C 371.711,219.52 370.044,219.187 368.5,218C 372.099,215.048 375.433,211.882 378.5,208.5C 369.848,213.349 362.181,219.516 355.5,227C 351.881,229.604 348.214,231.104 344.5,231.5C 356.566,215.21 369.233,199.377 382.5,184C 390.07,181.048 397.737,178.381 405.5,176C 406.833,174.667 408.167,173.333 409.5,172C 404.03,172.266 398.863,173.766 394,176.5C 392.933,175.809 391.766,175.309 390.5,175C 394.466,170.033 398.799,165.366 403.5,161C 401.831,160.878 400.165,161.212 398.5,162C 389.993,171.864 379.493,178.364 367,181.5C 366.5,181.333 366,181.167 365.5,181C 369.886,175.707 373.886,170.207 377.5,164.5C 382.342,161.06 385.342,156.726 386.5,151.5C 383.693,153.669 380.693,155.335 377.5,156.5C 377.25,153.495 378.583,151.662 381.5,151C 402.397,146.861 423.064,142.028 443.5,136.5C 443.826,140.884 443.492,145.217 442.5,149.5C 438.787,152.884 435.121,156.217 431.5,159.5 Z"/></g>
<g><path style="opacity:1" fill="#f3f3f3" d="M 449.5,137.5 C 458.054,139.864 462.054,145.364 461.5,154C 458.308,156.692 454.975,159.192 451.5,161.5C 450.612,153.512 449.945,145.512 449.5,137.5 Z"/></g>
<g><path style="opacity:1" fill="#d7d7d7" d="M 328.5,132.5 C 329.573,133.251 329.74,134.251 329,135.5C 325.397,141.707 322.064,148.04 319,154.5C 318.672,151.793 319.005,149.126 320,146.5C 323.109,141.939 325.942,137.273 328.5,132.5 Z"/></g>
<g><path style="opacity:1" fill="#fbfbfb" d="M 420.5,188.5 C 416.9,190.43 413.9,193.097 411.5,196.5C 405.945,199.383 401.278,203.383 397.5,208.5C 390.917,213.072 384.584,218.072 378.5,223.5C 376.77,222.974 375.436,221.974 374.5,220.5C 376.278,218.736 377.611,216.736 378.5,214.5C 382.623,210.921 386.29,206.921 389.5,202.5C 394.167,198.5 398.5,194.167 402.5,189.5C 412.527,179.806 422.527,170.139 432.5,160.5C 436.458,157.715 440.291,154.715 444,151.5C 444.667,156.833 444.667,162.167 444,167.5C 435.435,173.696 427.601,180.696 420.5,188.5 Z"/></g>
<g><path style="opacity:1" fill="#f3f3f3" d="M 371.5,152.5 C 372.873,152.343 374.207,152.51 375.5,153C 371.856,155.975 370.023,159.808 370,164.5C 361.37,171.461 353.037,178.795 345,186.5C 345.642,184.193 346.642,181.859 348,179.5C 354.714,171.788 361.047,163.788 367,155.5C 368.409,154.219 369.909,153.219 371.5,152.5 Z"/></g>
<g><path style="opacity:1" fill="#fbfbfb" d="M 357.5,155.5 C 358.873,155.343 360.207,155.51 361.5,156C 358.629,158.703 355.962,161.536 353.5,164.5C 348.56,167.77 344.227,171.77 340.5,176.5C 338.732,172.362 337.066,168.195 335.5,164C 337.527,161.973 339.527,159.973 341.5,158C 346.799,156.898 352.132,156.064 357.5,155.5 Z"/></g>
<g><path style="opacity:1" fill="#585858" d="M 357.5,155.5 C 359.288,154.378 361.288,154.211 363.5,155C 362.366,156.016 362.699,156.683 364.5,157C 361.208,160.138 357.542,162.638 353.5,164.5C 355.962,161.536 358.629,158.703 361.5,156C 360.207,155.51 358.873,155.343 357.5,155.5 Z"/></g>
<g><path style="opacity:1" fill="#fafafa" d="M 459.5,160.5 C 461.129,159.375 462.629,158.041 464,156.5C 465.136,160.243 466.47,163.91 468,167.5C 471.981,191.692 476.981,215.692 483,239.5C 483.814,241.902 483.647,244.235 482.5,246.5C 464.87,257.325 447.87,269.158 431.5,282C 426.872,284.316 422.372,286.816 418,289.5C 416.743,289.15 416.409,288.483 417,287.5C 421.423,280.989 426.089,274.655 431,268.5C 434.526,267.356 437.526,265.356 440,262.5C 440.711,260.633 440.211,259.133 438.5,258C 444.926,247.912 452.426,238.746 461,230.5C 461.233,228.22 462.066,226.22 463.5,224.5C 462.758,223.713 461.925,223.047 461,222.5C 459.261,209.179 457.594,195.845 456,182.5C 452.895,178.404 451.895,173.738 453,168.5C 455.782,166.229 457.949,163.563 459.5,160.5 Z"/></g>
<g><path style="opacity:1" fill="#151515" d="M 183.5,159.5 C 186.518,159.335 189.518,159.502 192.5,160C 191.167,161.333 189.833,162.667 188.5,164C 184.196,165.106 179.863,166.106 175.5,167C 173.983,168.685 172.316,170.185 170.5,171.5C 169.406,170.132 169.74,168.965 171.5,168C 171,167.833 170.5,167.667 170,167.5C 160.931,170.059 151.765,172.225 142.5,174C 136.6,176.633 130.6,178.633 124.5,180C 126.167,178.333 127.833,176.667 129.5,175C 134.988,173.393 140.322,171.393 145.5,169C 158.508,166.415 171.175,163.248 183.5,159.5 Z"/></g>
<g><path style="opacity:1" fill="#e9e9e9" d="M 459.5,160.5 C 456.87,162.628 454.37,164.961 452,167.5C 451.08,164.692 451.913,162.525 454.5,161C 456.305,160.028 457.972,158.861 459.5,157.5C 460.087,158.233 460.087,159.233 459.5,160.5 Z"/></g>
<g><path style="opacity:1" fill="#f2f2f2" d="M 377.5,164.5 C 371.178,168.991 366.511,174.824 363.5,182C 358.149,183.671 352.816,185.004 347.5,186C 358.063,176.431 368.896,167.264 380,158.5C 379.517,160.537 378.684,162.537 377.5,164.5 Z"/></g>
<g><path style="opacity:1" fill="#121212" d="M 296.5,167.5 C 302.753,169.283 303.086,171.95 297.5,175.5C 295.668,174.752 294.001,173.752 292.5,172.5C 293.857,170.814 295.19,169.148 296.5,167.5 Z"/></g>
<g><path style="opacity:1" fill="#fafafa" d="M 445.5,175.5 C 436.563,184.938 427.396,194.272 418,203.5C 415.259,206.729 412.759,210.062 410.5,213.5C 404.276,219.61 398.276,225.943 392.5,232.5C 388.228,230.226 384.228,227.559 380.5,224.5C 386.187,219.145 391.854,213.812 397.5,208.5C 402.467,204.868 407.133,200.868 411.5,196.5C 415.1,194.57 418.1,191.903 420.5,188.5C 428.774,182.069 436.94,175.402 445,168.5C 445.497,170.81 445.663,173.143 445.5,175.5 Z"/></g>
<g><path style="opacity:1" fill="#e4e4e4" d="M 389.5,171.5 C 390.239,171.369 390.906,171.536 391.5,172C 390.313,173.019 389.313,174.186 388.5,175.5C 387.277,176.614 385.944,176.781 384.5,176C 386.618,174.951 388.284,173.451 389.5,171.5 Z"/></g>
<g><path style="opacity:1" fill="#797979" d="M 479.5,168.5 C 480.657,177.324 480.824,186.324 480,195.5C 479.56,193.134 479.06,190.801 478.5,188.5C 479.491,182.021 479.824,175.354 479.5,168.5 Z"/></g>
<g><path style="opacity:1" fill="#e9e9e9" d="M 350.5,171.5 C 351.525,171.897 351.692,172.563 351,173.5C 348.333,176.833 345.667,180.167 343,183.5C 342.333,182.167 342.333,180.833 343,179.5C 345.705,176.964 348.205,174.297 350.5,171.5 Z"/></g>
<g><path style="opacity:1" fill="#fbfbfb" d="M 446.5,176.5 C 447.414,183.662 448.414,190.829 449.5,198C 449.89,201.124 448.89,203.624 446.5,205.5C 439.686,210.079 433.019,214.913 426.5,220C 423.629,222.703 420.962,225.536 418.5,228.5C 415.269,230.22 412.436,232.553 410,235.5C 407.323,233.486 404.656,231.486 402,229.5C 399.888,230.608 398.054,232.108 396.5,234C 397.016,236.033 396.35,236.033 394.5,234C 400.072,227.272 405.405,220.439 410.5,213.5C 422.5,201.167 434.5,188.833 446.5,176.5 Z"/></g>
<g><path style="opacity:1" fill="#0a0a0a" d="M 247.5,178.5 C 248.496,178.414 249.329,178.748 250,179.5C 252.779,185.521 256.113,191.187 260,196.5C 259.333,202.833 256.667,203.833 252,199.5C 249.421,194.008 246.588,188.675 243.5,183.5C 244.857,181.814 246.19,180.148 247.5,178.5 Z"/></g>
<g><path style="opacity:1" fill="#f4f4f4" d="M 356.5,200.5 C 358.5,199.167 360.167,197.5 361.5,195.5C 367.244,191.93 372.578,187.763 377.5,183C 379.165,182.212 380.831,181.878 382.5,182C 373.31,192.222 364.477,202.722 356,213.5C 354.558,210.95 353.392,208.284 352.5,205.5C 353.857,203.814 355.19,202.148 356.5,200.5 Z"/></g>
<g><path style="opacity:1" fill="#0f0f0f" d="M 231.5,183.5 C 235.283,186.888 237.95,191.054 239.5,196C 238.462,199.262 236.462,200.429 233.5,199.5C 231.371,196.075 229.371,192.575 227.5,189C 228.65,187.019 229.984,185.186 231.5,183.5 Z"/></g>
<g><path style="opacity:1" fill="#f3f3f3" d="M 361.5,194.5 C 359.167,196.167 357.167,198.167 355.5,200.5C 354.206,201.29 353.039,202.29 352,203.5C 351.5,202.5 351,201.5 350.5,200.5C 353.665,195.022 357.665,190.188 362.5,186C 366.446,184.676 370.446,184.009 374.5,184C 369.731,187.04 365.397,190.54 361.5,194.5 Z"/></g>
<g><path style="opacity:1" fill="#c7c7c7" d="M 335.5,185.5 C 338.347,187.798 338.013,189.131 334.5,189.5C 334.433,188.041 334.766,186.708 335.5,185.5 Z"/></g>
<g><path style="opacity:1" fill="#646464" d="M 259.5,187.5 C 261.5,188.167 263.5,188.833 265.5,189.5C 263.076,189.808 260.743,189.474 258.5,188.5C 258.624,187.893 258.957,187.56 259.5,187.5 Z"/></g>
<g><path style="opacity:1" fill="#e7e7e7" d="M 356.5,187.5 C 357.239,187.369 357.906,187.536 358.5,188C 355.784,191.261 352.951,194.428 350,197.5C 347.929,195.545 347.262,193.212 348,190.5C 350.87,189.307 353.704,188.307 356.5,187.5 Z"/></g>
<g><path style="opacity:1" fill="#ececec" d="M 322.5,189.5 C 324.104,190.287 324.771,191.62 324.5,193.5C 309.347,196.664 294.514,200.997 280,206.5C 278.775,206.138 277.609,205.638 276.5,205C 291.846,199.496 307.18,194.329 322.5,189.5 Z"/></g>
<g><path style="opacity:1" fill="#2b2b2b" d="M 431.5,159.5 C 432.167,159.5 432.5,159.833 432.5,160.5C 422.527,170.139 412.527,179.806 402.5,189.5C 402.565,189.062 402.399,188.728 402,188.5C 398.605,191.407 395.105,194.073 391.5,196.5C 404.807,184.195 418.141,171.861 431.5,159.5 Z"/></g>
<g><path style="opacity:1" fill="#2d2d2d" d="M 420.5,188.5 C 418.1,191.903 415.1,194.57 411.5,196.5C 413.9,193.097 416.9,190.43 420.5,188.5 Z"/></g>
<g><path style="opacity:1" fill="#3f3f3f" d="M 445.5,175.5 C 446.167,175.5 446.5,175.833 446.5,176.5C 434.5,188.833 422.5,201.167 410.5,213.5C 412.759,210.062 415.259,206.729 418,203.5C 427.396,194.272 436.563,184.938 445.5,175.5 Z"/></g>
<g><path style="opacity:1" fill="#dcdcdc" d="M 320.5,197.5 C 321.833,197.5 323.167,197.5 324.5,197.5C 324.64,199.124 323.973,200.29 322.5,201C 312.52,203.139 302.52,204.805 292.5,206C 302.047,203.366 311.38,200.533 320.5,197.5 Z"/></g>
<g><path style="opacity:1" fill="#707070" d="M 361.5,194.5 C 361.5,194.833 361.5,195.167 361.5,195.5C 360.167,197.5 358.5,199.167 356.5,200.5C 356.167,200.5 355.833,200.5 355.5,200.5C 357.167,198.167 359.167,196.167 361.5,194.5 Z"/></g>
<g><path style="opacity:1" fill="#747474" d="M 402.5,189.5 C 398.5,194.167 394.167,198.5 389.5,202.5C 389.414,201.504 389.748,200.671 390.5,200C 388.388,198.783 388.721,197.617 391.5,196.5C 395.105,194.073 398.605,191.407 402,188.5C 402.399,188.728 402.565,189.062 402.5,189.5 Z"/></g>
<g><path style="opacity:1" fill="#f0f0f0" d="M 338.5,192.5 C 340.981,196.129 342.981,200.129 344.5,204.5C 343.149,207.196 341.316,209.53 339,211.5C 336.513,207.026 337.013,203.026 340.5,199.5C 339.311,198.571 337.978,198.238 336.5,198.5C 336.714,196.856 336.38,195.356 335.5,194C 336.737,193.768 337.737,193.268 338.5,192.5 Z"/></g>
<g><path style="opacity:1" fill="#0a0a0a" d="M 161.5,199.5 C 171.829,206.596 182.663,213.263 194,219.5C 194.667,220.167 194.667,220.833 194,221.5C 192.647,222.685 191.48,224.019 190.5,225.5C 194.194,229.86 198.194,233.86 202.5,237.5C 200.387,242.546 197.387,243.379 193.5,240C 186.462,233.293 179.128,226.96 171.5,221C 164.018,215.594 156.018,211.261 147.5,208C 150.098,205.041 153.432,203.707 157.5,204C 159.041,202.629 160.375,201.129 161.5,199.5 Z"/></g>
<g><path style="opacity:1" fill="#2c2c2c" d="M 378.5,208.5 C 380.857,204.955 383.857,202.455 387.5,201C 384.899,204.112 381.899,206.612 378.5,208.5 Z"/></g>
<g><path style="opacity:1" fill="#2e2e2e" d="M 411.5,196.5 C 407.133,200.868 402.467,204.868 397.5,208.5C 401.278,203.383 405.945,199.383 411.5,196.5 Z"/></g>
<g><path style="opacity:1" fill="#f6f6f6" d="M 319.5,205.5 C 321.5,205.5 323.5,205.5 325.5,205.5C 326.968,213.775 327.968,222.108 328.5,230.5C 322.62,228.893 316.953,226.727 311.5,224C 312.357,223.311 313.023,222.478 313.5,221.5C 310.564,220.885 307.897,219.718 305.5,218C 308.368,217.139 310.702,215.472 312.5,213C 308.504,213.49 304.504,214.323 300.5,215.5C 297.268,214.882 294.268,213.715 291.5,212C 300.821,209.502 310.154,207.335 319.5,205.5 Z"/></g>
<g><path style="opacity:1" fill="#272727" d="M 446.5,205.5 C 447.337,205.611 448.337,205.944 449.5,206.5C 450.386,207.325 450.719,208.325 450.5,209.5C 449.778,209.082 449.278,208.416 449,207.5C 447.629,209.041 446.129,210.375 444.5,211.5C 444.304,209.354 443.304,209.188 441.5,211C 433.654,216.69 425.987,222.523 418.5,228.5C 420.962,225.536 423.629,222.703 426.5,220C 433.019,214.913 439.686,210.079 446.5,205.5 Z"/></g>
<g><path style="opacity:1" fill="#fbfbfb" d="M 450.5,209.5 C 450.201,211.604 450.534,213.604 451.5,215.5C 453.102,214.45 453.935,215.117 454,217.5C 454.27,221.373 454.77,225.206 455.5,229C 446.89,236.31 437.89,243.143 428.5,249.5C 425.482,247.474 422.482,245.474 419.5,243.5C 421.031,240.101 422.865,236.767 425,233.5C 431.742,226.323 438.242,218.99 444.5,211.5C 446.129,210.375 447.629,209.041 449,207.5C 449.278,208.416 449.778,209.082 450.5,209.5 Z"/></g>
<g><path style="opacity:1" fill="#f3f3f3" d="M 345.5,209.5 C 347.531,212.554 349.198,215.887 350.5,219.5C 347.858,223.309 345.025,226.976 342,230.5C 340.801,225.188 340.134,219.854 340,214.5C 342.191,213.167 344.024,211.5 345.5,209.5 Z"/></g>
<g><path style="opacity:1" fill="#1e1e1e" d="M 389.5,202.5 C 386.29,206.921 382.623,210.921 378.5,214.5C 380.087,211.732 381.92,209.065 384,206.5C 385.451,204.536 387.284,203.203 389.5,202.5 Z"/></g>
<g><path style="opacity:1" fill="#f4f4f4" d="M 444.5,211.5 C 438.853,214.982 434.353,219.649 431,225.5C 425.887,230.443 421.054,235.443 416.5,240.5C 414.704,239.207 413.037,237.707 411.5,236C 414.039,233.63 416.372,231.13 418.5,228.5C 425.987,222.523 433.654,216.69 441.5,211C 443.304,209.188 444.304,209.354 444.5,211.5 Z"/></g>
<g><path style="opacity:1" fill="#f0f0f0" d="M 271.5,213.5 C 273.604,213.201 275.604,213.534 277.5,214.5C 276.167,216.167 274.833,217.833 273.5,219.5C 275.904,220.35 278.237,221.35 280.5,222.5C 275.476,225.12 270.31,227.454 265,229.5C 266.839,224.176 269.006,218.842 271.5,213.5 Z"/></g>
<g><path style="opacity:1" fill="#0b0b0b" d="M 121.5,214.5 C 123.164,215.949 123.998,217.949 124,220.5C 124.85,240.524 124.516,260.524 123,280.5C 121.998,285.165 119.498,288.831 115.5,291.5C 115.167,291 114.833,290.5 114.5,290C 115.161,287.536 115.661,285.036 116,282.5C 116.333,261.5 116.667,240.5 117,219.5C 118.707,217.963 120.207,216.296 121.5,214.5 Z"/></g>
<g><path style="opacity:1" fill="#f2f2f2" d="M 361.5,223.5 C 363.842,223.504 365.842,224.337 367.5,226C 365.5,229 363.5,232 361.5,235C 357.887,235.208 354.554,234.208 351.5,232C 355.025,229.302 358.358,226.469 361.5,223.5 Z"/></g>
<g><path style="opacity:1" fill="#fbfbfb" d="M 285.5,224.5 C 300.157,226.663 313.824,231.496 326.5,239C 327.793,239.49 329.127,239.657 330.5,239.5C 331.87,258.524 335.703,276.857 342,294.5C 322.996,285.414 304.162,275.914 285.5,266C 280.478,264.986 275.811,263.152 271.5,260.5C 269.35,262.149 267.35,263.982 265.5,266C 272.216,271.717 279.216,277.05 286.5,282C 287.696,282.654 287.696,283.154 286.5,283.5C 277.438,278.636 268.104,274.303 258.5,270.5C 258.167,269.333 257.833,268.167 257.5,267C 259.119,255.806 260.952,244.64 263,233.5C 270.623,230.576 278.123,227.576 285.5,224.5 Z"/></g>
<g><path style="opacity:1" fill="#ececec" d="M 370.5,231.5 C 368.833,232.5 367.5,233.833 366.5,235.5C 364.983,235.511 363.816,236.177 363,237.5C 364.021,233.442 366.354,230.109 370,227.5C 373.015,228.359 373.181,229.692 370.5,231.5 Z"/></g>
<g><path style="opacity:1" fill="#f6f6f6" d="M 366.5,235.5 C 368.749,234.92 370.415,233.587 371.5,231.5C 372.458,231.047 373.292,230.381 374,229.5C 378.748,232.791 383.581,235.958 388.5,239C 386.5,241.333 384.5,243.667 382.5,246C 381.5,246.667 380.5,246.667 379.5,246C 374.659,243.079 369.659,240.412 364.5,238C 365.381,237.292 366.047,236.458 366.5,235.5 Z"/></g>
<g><path style="opacity:1" fill="#2b2b2b" d="M 444.5,211.5 C 438.242,218.99 431.742,226.323 425,233.5C 422.865,236.767 421.031,240.101 419.5,243.5C 418.5,242.5 417.5,241.5 416.5,240.5C 421.054,235.443 425.887,230.443 431,225.5C 434.353,219.649 438.853,214.982 444.5,211.5 Z"/></g>
<g><path style="opacity:1" fill="#6b6b6b" d="M 370.5,231.5 C 370.833,231.5 371.167,231.5 371.5,231.5C 370.415,233.587 368.749,234.92 366.5,235.5C 367.5,233.833 368.833,232.5 370.5,231.5 Z"/></g>
<g><path style="opacity:1" fill="#f0f0f0" d="M 453.5,232.5 C 454.525,232.897 454.692,233.563 454,234.5C 448.117,241.382 442.617,248.548 437.5,256C 435.196,255.427 433.029,254.26 431,252.5C 430.493,251.004 430.993,249.837 432.5,249C 439.974,244.018 446.974,238.518 453.5,232.5 Z"/></g>
<g><path style="opacity:1" fill="#f9f9f9" d="M 378.5,348.5 C 379.338,348.842 379.672,349.508 379.5,350.5C 379.272,352.355 379.939,353.188 381.5,353C 383.543,351.189 385.043,349.022 386,346.5C 387.218,355.949 383.052,360.115 373.5,359C 370.309,357.913 366.975,357.08 363.5,356.5C 363.624,355.893 363.957,355.56 364.5,355.5C 365.043,355.44 365.376,355.107 365.5,354.5C 362.691,353.2 360.024,353.2 357.5,354.5C 357.167,354.5 356.833,354.5 356.5,354.5C 345.986,354.828 335.653,354.494 325.5,353.5C 331.952,351.405 338.452,349.405 345,347.5C 348.903,347.608 352.236,345.941 355,342.5C 355.432,341.4 354.932,340.733 353.5,340.5C 343.754,343.582 334.087,346.749 324.5,350C 321.095,354.737 316.762,355.737 311.5,353C 306.185,350.523 302.518,346.69 300.5,341.5C 297.99,343.511 295.657,345.678 293.5,348C 282.792,349.097 272.125,350.097 261.5,351C 262.591,348.936 262.758,346.769 262,344.5C 255.897,325.108 250.897,305.441 247,285.5C 246.241,282.215 244.908,279.215 243,276.5C 242.095,270.86 242.595,265.36 244.5,260C 244.167,259.5 243.833,259 243.5,258.5C 239.795,260.369 237.961,263.369 238,267.5C 237.392,291.863 237.725,316.197 239,340.5C 235.918,338.375 232.751,336.375 229.5,334.5C 228.914,334.709 228.414,335.043 228,335.5C 227.2,313.803 227.366,292.136 228.5,270.5C 229.82,262.99 229.82,255.323 228.5,247.5C 227.893,247.624 227.56,247.957 227.5,248.5C 225.871,249.625 224.371,250.959 223,252.5C 222.211,248.909 222.378,245.409 223.5,242C 234.662,240.521 245.662,238.355 256.5,235.5C 255.299,240.831 253.965,246.164 252.5,251.5C 253.425,253.236 254.092,255.07 254.5,257C 253.755,262.059 252.755,267.059 251.5,272C 251.833,273.167 252.167,274.333 252.5,275.5C 261.244,279.036 269.91,282.869 278.5,287C 288.843,293.507 299.51,299.507 310.5,305C 309.313,306.019 308.313,307.186 307.5,308.5C 310.366,320.437 313.033,332.437 315.5,344.5C 317.483,343.018 319.316,341.351 321,339.5C 321.333,333.167 321.667,326.833 322,320.5C 325.307,317.411 324.974,314.744 321,312.5C 319.374,313.289 317.874,314.289 316.5,315.5C 314.595,312.987 314.261,310.321 315.5,307.5C 319.209,309.458 323.043,311.125 327,312.5C 329.296,311.372 331.129,309.705 332.5,307.5C 320.308,298.141 307.974,288.974 295.5,280C 308.755,286.942 322.421,293.442 336.5,299.5C 336.833,299.833 337.167,300.167 337.5,300.5C 336.167,302.167 334.833,303.833 333.5,305.5C 333.709,306.086 334.043,306.586 334.5,307C 341.419,308.457 348.419,309.29 355.5,309.5C 356.774,313.315 356.774,317.148 355.5,321C 356.704,325.422 357.537,329.922 358,334.5C 358.36,336.421 359.194,338.088 360.5,339.5C 361.478,339.023 362.311,338.357 363,337.5C 364.128,339.345 364.628,341.345 364.5,343.5C 366.903,343.607 368.736,342.607 370,340.5C 371.053,345.091 371.886,349.758 372.5,354.5C 374.854,352.812 376.854,350.812 378.5,348.5 Z"/></g>
<g><path style="opacity:1" fill="#fafafa" d="M 399.5,263.5 C 393.243,271.601 386.743,279.601 380,287.5C 379.333,288.5 379.333,289.5 380,290.5C 392.26,282.399 403.76,273.399 414.5,263.5C 419.861,264.099 425.194,264.933 430.5,266C 424.366,275.1 417.866,283.933 411,292.5C 410.333,293.833 410.333,295.167 411,296.5C 428.95,285.777 446.116,273.944 462.5,261C 467.5,258.167 472.5,255.333 477.5,252.5C 478.521,253.002 478.688,253.668 478,254.5C 473.391,262.107 468.391,269.441 463,276.5C 462.505,278.473 462.338,280.473 462.5,282.5C 466.879,281.987 471.213,281.153 475.5,280C 476.687,278.981 477.687,277.814 478.5,276.5C 475.23,275.808 471.897,275.808 468.5,276.5C 468.34,274.801 468.506,273.134 469,271.5C 474.394,264.282 479.56,256.949 484.5,249.5C 485.5,250.833 486.5,252.167 487.5,253.5C 488.425,252.359 489.259,252.359 490,253.5C 493.433,261.809 494.766,270.476 494,279.5C 487.335,286.749 479.169,291.249 469.5,293C 436.269,296.861 402.936,298.861 369.5,299C 363.23,297.06 357.064,294.893 351,292.5C 350.73,275.943 348.397,259.61 344,243.5C 343.186,241.098 343.353,238.765 344.5,236.5C 347.715,238.274 351.048,239.774 354.5,241C 353.903,242.626 353.903,244.459 354.5,246.5C 355.874,245.289 357.374,244.289 359,243.5C 365.386,246.276 371.552,249.443 377.5,253C 372,259.833 366.5,266.667 361,273.5C 360.312,274.332 360.479,274.998 361.5,275.5C 369.928,269.907 377.928,263.741 385.5,257C 391.254,257.216 396.921,258.216 402.5,260C 401.29,261.039 400.29,262.206 399.5,263.5 Z"/></g>
<g><path style="opacity:1" fill="#f4f4f4" d="M 388.5,240.5 C 391.714,241.44 394.714,242.94 397.5,245C 393.457,250.179 388.79,250.846 383.5,247C 385.539,245.074 387.206,242.907 388.5,240.5 Z"/></g>
<g><path style="opacity:1" fill="#eeeeee" d="M 398.5,245.5 C 402.469,247.151 406.135,249.318 409.5,252C 408.601,253.236 407.434,254.07 406,254.5C 401.502,254.062 397.335,252.729 393.5,250.5C 395.521,249.145 397.188,247.479 398.5,245.5 Z"/></g>
<g><path style="opacity:1" fill="#f2f2f2" d="M 413.5,248.5 C 416.621,250.448 419.621,252.615 422.5,255C 421.646,256.022 420.646,256.855 419.5,257.5C 416.09,256.751 412.756,255.751 409.5,254.5C 410.844,252.471 412.177,250.471 413.5,248.5 Z"/></g>
<g><path style="opacity:1" fill="#7b7b7b" d="M 227.5,248.5 C 227.56,247.957 227.893,247.624 228.5,247.5C 229.82,255.323 229.82,262.99 228.5,270.5C 228.825,262.981 228.492,255.648 227.5,248.5 Z"/></g>
<g><path style="opacity:1" fill="#efefef" d="M 378.5,253.5 C 380.199,253.34 381.866,253.506 383.5,254C 384.451,254.718 384.617,255.551 384,256.5C 380.167,259.667 376.333,262.833 372.5,266C 370.945,267.289 369.279,267.956 367.5,268C 371.549,263.376 375.215,258.543 378.5,253.5 Z"/></g>
<g><path style="opacity:1" fill="#eaeaea" d="M 422.5,256.5 C 423.756,256.461 424.756,256.961 425.5,258C 424.167,258.667 422.833,258.667 421.5,258C 422.056,257.617 422.389,257.117 422.5,256.5 Z"/></g>
<g><path style="opacity:1" fill="#efefef" d="M 413.5,263.5 C 404.863,270.158 396.197,276.825 387.5,283.5C 387.167,283.333 386.833,283.167 386.5,283C 388,281.5 389.5,280 391,278.5C 394.022,273.331 397.189,268.331 400.5,263.5C 403.982,260.155 407.982,259.655 412.5,262C 413.056,262.383 413.389,262.883 413.5,263.5 Z"/></g>
<g><path style="opacity:1" fill="#1f1f1f" d="M 399.5,263.5 C 399.833,263.5 400.167,263.5 400.5,263.5C 397.189,268.331 394.022,273.331 391,278.5C 389.5,280 388,281.5 386.5,283C 386.833,283.167 387.167,283.333 387.5,283.5C 396.197,276.825 404.863,270.158 413.5,263.5C 413.833,263.5 414.167,263.5 414.5,263.5C 403.76,273.399 392.26,282.399 380,290.5C 379.333,289.5 379.333,288.5 380,287.5C 386.743,279.601 393.243,271.601 399.5,263.5 Z"/></g>
<g><path style="opacity:1" fill="#7d7d7d" d="M 217.5,295.5 C 217.56,294.957 217.893,294.624 218.5,294.5C 219.474,296.743 219.808,299.076 219.5,301.5C 218.833,299.5 218.167,297.5 217.5,295.5 Z"/></g>
<g><path style="opacity:1" fill="#767676" d="M 380.5,310.5 C 378.052,309.527 375.385,309.194 372.5,309.5C 372.5,310.5 372.5,311.5 372.5,312.5C 371.566,311.432 371.232,310.099 371.5,308.5C 374.898,308.18 378.232,308.513 381.5,309.5C 381.376,310.107 381.043,310.44 380.5,310.5 Z"/></g>
<g><path style="opacity:1" fill="#f2f2f2" d="M 380.5,310.5 C 379.636,316.39 378.636,322.39 377.5,328.5C 376.833,329.167 376.167,329.833 375.5,330.5C 374.076,324.565 373.076,318.565 372.5,312.5C 372.5,311.5 372.5,310.5 372.5,309.5C 375.385,309.194 378.052,309.527 380.5,310.5 Z"/></g>
<g><path style="opacity:1" fill="#b2b2b2" d="M 363.5,309.5 C 365.045,310.23 365.878,311.563 366,313.5C 366.667,315.833 366.667,318.167 366,320.5C 364.594,316.969 363.76,313.302 363.5,309.5 Z"/></g>
<g><path style="opacity:1" fill="#686868" d="M 250.5,329.5 C 249.596,330.209 249.263,331.209 249.5,332.5C 248.366,330.034 248.199,327.367 249,324.5C 249.608,326.154 250.108,327.821 250.5,329.5 Z"/></g>
<g><path style="opacity:1" fill="#757575" d="M 377.5,328.5 C 377.852,331.073 377.352,333.406 376,335.5C 375.506,333.866 375.34,332.199 375.5,330.5C 376.167,329.833 376.833,329.167 377.5,328.5 Z"/></g>
<g><path style="opacity:1" fill="#d9d9d9" d="M 250.5,329.5 C 252.656,337.124 254.656,344.791 256.5,352.5C 254.409,352.318 252.409,352.652 250.5,353.5C 249.503,346.532 249.17,339.532 249.5,332.5C 249.263,331.209 249.596,330.209 250.5,329.5 Z"/></g>
<g><path style="opacity:1" fill="#e7e7e7" d="M 227.5,342.5 C 231.652,345.573 236.319,347.573 241.5,348.5C 241.785,350.288 241.452,351.955 240.5,353.5C 234.658,351.44 230.324,347.774 227.5,342.5 Z"/></g>
<g><path style="opacity:1" fill="#727272" d="M 379.5,350.5 C 379.672,349.508 379.338,348.842 378.5,348.5C 378.892,346.821 379.392,345.154 380,343.5C 380.796,346.039 380.629,348.372 379.5,350.5 Z"/></g>
<g><path style="opacity:1" fill="#727272" d="M 357.5,354.5 C 360.024,353.2 362.691,353.2 365.5,354.5C 365.376,355.107 365.043,355.44 364.5,355.5C 362.393,354.532 360.059,354.198 357.5,354.5 Z"/></g>
<g><path style="opacity:1" fill="#1a1a1a" d="M 475.5,375.5 C 474.566,374.432 474.232,373.099 474.5,371.5C 471.941,371.198 469.607,371.532 467.5,372.5C 443.003,373.621 418.503,373.287 394,371.5C 390.833,371.667 387.667,371.833 384.5,372C 381.706,374.638 378.539,375.138 375,373.5C 372.5,376 370,378.5 367.5,381C 363.093,381.142 358.759,380.808 354.5,380C 358.618,383.845 358.285,387.345 353.5,390.5C 355.286,392.569 356.952,394.736 358.5,397C 357.346,399.487 355.513,401.321 353,402.5C 350.906,399.968 349.073,397.301 347.5,394.5C 348.406,392.253 349.739,390.253 351.5,388.5C 350.025,385.755 350.691,383.588 353.5,382C 348.852,383.84 344.518,386.507 340.5,390C 339.365,390.749 338.365,390.583 337.5,389.5C 344.049,380.401 352.716,374.568 363.5,372C 365.66,370.668 367.66,369.168 369.5,367.5C 369.833,367.5 370.167,367.5 370.5,367.5C 368.664,370.168 366.331,372.334 363.5,374C 365.74,374.977 368.073,375.477 370.5,375.5C 371.393,371.605 373.726,368.938 377.5,367.5C 386.78,366.553 396.114,366.22 405.5,366.5C 429.177,367.645 452.844,367.645 476.5,366.5C 475.242,360.897 476.909,356.563 481.5,353.5C 482.663,358.802 482.829,364.136 482,369.5C 479.963,371.706 477.797,373.706 475.5,375.5 Z"/></g>
<g><path style="opacity:1" fill="#494949" d="M 325.5,353.5 C 335.653,354.494 345.986,354.828 356.5,354.5C 345.674,355.659 334.674,355.826 323.5,355C 324.044,354.283 324.711,353.783 325.5,353.5 Z"/></g>
<g><path style="opacity:1" fill="#777777" d="M 229.5,356.5 C 228.517,360.298 228.183,364.298 228.5,368.5C 227.189,364.317 227.189,359.984 228.5,355.5C 229.107,355.624 229.44,355.957 229.5,356.5 Z"/></g>
<g><path style="opacity:1" fill="#787878" d="M 263.5,355.5 C 264.873,355.343 266.207,355.51 267.5,356C 263.372,358.066 259.039,358.732 254.5,358C 257.5,356.926 260.5,356.093 263.5,355.5 Z"/></g>
<g><path style="opacity:1" fill="#f4f4f4" d="M 289.5,355.5 C 290.873,355.343 292.207,355.51 293.5,356C 286.683,359.142 280.683,363.476 275.5,369C 274.241,369.982 272.908,370.315 271.5,370C 274.5,366.333 277.5,362.667 280.5,359C 283.662,357.973 286.662,356.806 289.5,355.5 Z"/></g>
<g><path style="opacity:1" fill="#7c7c7c" d="M 297.5,355.5 C 299.552,356.053 299.885,357.053 298.5,358.5C 298.631,357.761 298.464,357.094 298,356.5C 297.292,357.381 296.458,358.047 295.5,358.5C 295.5,358.167 295.5,357.833 295.5,357.5C 295.833,356.5 296.5,355.833 297.5,355.5 Z"/></g>
<g><path style="opacity:1" fill="#141414" d="M 298.5,358.5 C 297.711,359.915 297.044,361.415 296.5,363C 297.247,366.735 298.247,370.401 299.5,374C 298.667,376.167 297.167,377.667 295,378.5C 292.657,375.683 290.824,372.516 289.5,369C 291.345,366.472 292.512,363.639 293,360.5C 293.708,359.619 294.542,358.953 295.5,358.5C 296.458,358.047 297.292,357.381 298,356.5C 298.464,357.094 298.631,357.761 298.5,358.5 Z"/></g>
<g><path style="opacity:1" fill="#939393" d="M 248.5,357.5 C 249.675,357.281 250.675,357.614 251.5,358.5C 249.948,359.798 248.948,359.465 248.5,357.5 Z"/></g>
<g><path style="opacity:1" fill="#f5f5f5" d="M 389.5,364.5 C 387.052,365.473 384.385,365.806 381.5,365.5C 382.476,364.185 383.476,362.852 384.5,361.5C 383.975,360.808 383.308,360.308 382.5,360C 387.59,355.286 389.923,356.786 389.5,364.5 Z"/></g>
<g><path style="opacity:1" fill="#c0c0c0" d="M 259.5,361.5 C 260.675,361.281 261.675,361.614 262.5,362.5C 261.277,363.614 259.944,363.781 258.5,363C 259.056,362.617 259.389,362.117 259.5,361.5 Z"/></g>
<g><path style="opacity:1" fill="#767676" d="M 346.5,365.5 C 354.903,364.866 362.903,365.533 370.5,367.5C 370.167,367.5 369.833,367.5 369.5,367.5C 361.833,366.833 354.167,366.167 346.5,365.5 Z"/></g>
<g><path style="opacity:1" fill="#797979" d="M 389.5,364.5 C 390.167,364.5 390.833,364.5 391.5,364.5C 396.167,365.167 400.833,365.833 405.5,366.5C 396.114,366.22 386.78,366.553 377.5,367.5C 377.5,367.167 377.5,366.833 377.5,366.5C 378.708,365.766 380.041,365.433 381.5,365.5C 384.385,365.806 387.052,365.473 389.5,364.5 Z"/></g>
<g><path style="opacity:1" fill="#f7f7f7" d="M 377.5,366.5 C 377.5,366.833 377.5,367.167 377.5,367.5C 373.726,368.938 371.393,371.605 370.5,375.5C 368.073,375.477 365.74,374.977 363.5,374C 366.331,372.334 368.664,370.168 370.5,367.5C 372.717,366.631 375.05,366.298 377.5,366.5 Z"/></g>
<g><path style="opacity:1" fill="#7d7d7d" d="M 467.5,372.5 C 469.607,371.532 471.941,371.198 474.5,371.5C 474.232,373.099 474.566,374.432 475.5,375.5C 475.44,376.043 475.107,376.376 474.5,376.5C 473.571,375.311 473.238,373.978 473.5,372.5C 471.5,372.5 469.5,372.5 467.5,372.5 Z"/></g>
<g><path style="opacity:1" fill="#5d5d5d" d="M 222.5,406.5 C 223.167,408.833 223.833,411.167 224.5,413.5C 224.44,414.043 224.107,414.376 223.5,414.5C 222.52,411.914 222.187,409.247 222.5,406.5 Z"/></g>
</svg>
