<svg version="1.2" xmlns="http://www.w3.org/2000/svg" viewBox="0 0 311 209" width="311" height="209">
	<title>email_doodle</title>
	<style>
		.s0 { fill: #ffffff } 
		.s1 { fill: #000000 } 
	</style>
	<g id="Background">
		<path id="Path 0" class="s0" d="m0 0h311v209h-311v-104.5z" />
		<path id="Path 1" fill-rule="evenodd" class="s1" d="m233.3 9.1c0.9-0.1 2.4 0.1 3.2 0.4c0.8 0.3 1.5 1.7 1.5 3.3c0 1.5-0.5 4.1-1.1 5.7c-0.6 1.6-0.9 3.6-0.7 4.3c0.2 0.9 3.5-0.3 10.8-3.9c5.8-2.8 13-6 16-7c3-1.1 5.7-1.9 6-1.9c0.3 0 0.2 1.4-0.1 3.2c-0.4 1.8-2.6 7.6-4.9 12.8c-2.3 5.2-4.3 10.6-4.4 11.8c-0.1 1.9 0.8 2.8 4.4 4.2c2.5 1.1 6.9 1.9 9.7 1.9c4 0.1 5.5 0.5 6.2 1.8c0.6 1.2 0 7.4-1.6 17.3q-2.5 15.5-4.1 17.2c-1 1-3.2 2-5 2.3c-1.8 0.3-4.5-0.1-9.2-2.5v4.7c0 2.8 1.6 9.8 3.8 16.8c2.1 6.6 5.8 15.6 8.3 20c2.4 4.4 4.5 8.3 4.6 8.7c0.2 0.5-0.2 1.5-0.7 2.3c-0.8 1.3-1.9 0.8-6.8-3c-3.1-2.4-7.3-5.8-9.2-7.4c-1.9-1.7-4-3.1-4.5-3.1c-0.6 0-1.6 1.2-2.4 2.7c-0.7 1.5-2.2 5.5-3.3 8.8c-1.1 3.3-2.9 7.2-3.9 8.7c-1 1.6-2.5 2.8-3.2 2.8c-0.6 0-3.5-1.8-6.2-4c-2.8-2.2-5.5-4-6-4c-0.6 0-3.3 2.4-6.2 5.3c-5.1 5.1-5.2 5.2-7.5 3.4c-1.3-0.9-3.3-2.4-4.6-3.2c-2-1.4-2.5-1.3-6 1.2c-3.2 2.3-3.4 2.4-1.7 0.4c1.1-1.2 3.3-3 5-4c2.6-1.6 3.3-1.7 5.7-0.5c1.6 0.8 2.8 1.8 2.8 2.4c0 0.6 0.8 1.2 1.7 1.5q1.8 0.5 6.3-3.9c2.5-2.4 5.2-4.6 6-4.8c0.8-0.3 2.6 0 4 0.7c1.4 0.7 3.6 2.5 5 3.9c1.4 1.5 2.8 2.6 3.2 2.6c0.5 0 1.7-3 2.9-6.8c1.1-3.7 2.5-7.6 3.1-8.7c0.6-1.1 2.2-3.2 3.7-4.8c1.4-1.5 3.2-2.7 3.8-2.7c0.7 0 3.3 1.8 5.8 4c2.5 2.2 4.7 4 5 4c0.3 0-0.4-1.5-1.4-3.3c-1.1-1.7-3.8-8.9-6-16c-2.6-8.1-4.1-14.6-4.1-18c0-2.9 0.6-6.1 1.4-7.2c1.3-1.8 1.8-1.9 6-0.8c2.5 0.7 5.5 1.3 6.6 1.3c1.5 0 2.1-0.8 2.5-3.3c0.3-1.7 1.2-7.5 2-12.7c0.9-5.2 1.8-10.6 2.1-12q0.5-2.5-1.3-4.4c-1.3-1.3-2.6-1.7-5.1-1.2q-3.2 0.6-9.2-1.7c-3.8-1.4-6.1-2.8-6-3.7c0-0.8 1.2-4 2.6-7c1.4-3 3.7-8.2 5-11.5c1.3-3.3 2.4-6.8 2.4-7.8c0-0.9-0.3-1.7-0.8-1.7c-0.4 0-2.7 0.8-5.2 1.7c-2.5 0.9-9.3 4.1-15.3 7c-5.9 2.9-11 5.1-11.5 4.8c-0.4-0.3-0.1-2.4 0.6-4.8c0.8-2.3 1.2-5.3 1-6.7c-0.2-1.9-1-2.6-3.3-2.8c-1.7-0.2-7.1 1.2-12.5 3.1c-5.2 2-12 4.3-15 5.1c-3 0.9-7.3 1.6-9.5 1.6c-2.2 0-4.5-0.4-5-0.8c-0.6-0.4-2.2-2.4-3.8-4.5c-1.5-2-3.4-3.7-4.2-3.7c-0.8 0-3.9 1.1-6.8 2.4c-2.8 1.2-6.6 2.6-8.2 3c-2.4 0.6-3.6 0.2-9.8-4.9l-4.6 1.9c-2.5 1-5.7 2.1-7.1 2.4c-1.4 0.2-4-0.1-5.8-0.7c-3.1-1.1-3.2-1-5.3 3.1c-1.2 2.4-2.9 5.1-3.8 6.1c-0.9 1-2.8 1.8-4.4 1.7c-1.5 0-3.7-0.5-7.2-2.3l2.2 2.4c1.2 1.3 4.4 3.8 7.2 5.4c2.8 1.6 5.1 3.3 5.1 3.7c0 0.5-0.8 1.1-1.8 1.4c-1.1 0.4-3.6-0.7-6.7-2.9c-2.8-1.9-7.5-5.7-10.5-8.5c-5-4.6-5.4-5.2-4-6.7c1.4-1.6 2.1-1.4 9.7 1.9c4.6 2 8.7 3.4 9.3 3.1c0.5-0.3 1.7-2 2.6-3.8c0.9-1.7 2.6-4.2 3.8-5.4c1.9-2 2.8-2.2 8.1-1.7c4.9 0.4 6.8 0.2 10-1.5c2.2-1.2 4.6-2.1 5.2-2.1c0.7 0 2.5 1.1 4 2.5c1.6 1.4 3.7 2.6 4.8 2.6c1.1 0 4.5-1.2 7.5-2.5c3-1.4 6.7-2.7 8.2-3c2.5-0.5 3.2 0 5.8 3.9c1.6 2.5 4 4.8 5.2 5.1c1.3 0.3 5.2-0.2 8.8-1c3.6-0.9 11.4-3.4 17.5-5.6c6-2.1 11.8-3.9 12.7-3.9zm-1.2 36c0.2 0-0.2 0.6-1 1.4c-0.8 0.8-4.2 2.2-7.5 3.1c-3.3 0.8-11.2 3.1-17.5 5.1c-6.3 2-12.2 4.1-13 4.8c-0.8 0.7-4.7 2-8.5 2.9c-3.9 0.8-14.4 4.1-23.5 7.2c-9.1 3.1-16.6 5.7-16.7 5.7c-0.1 0.1 6.4 1 14.5 2c8.1 1 16.3 2 18.2 2.3c3.5 0.5 3.5 0.5 1.5 2.4c-1.8 1.8-3.3 1.9-17.2 1.7c-9.7-0.1-15.2-0.6-15-1.2c0.2-0.5 2.8-1.2 5.8-1.5c5.2-0.5 5.3-0.5 1.9-1.2c-1.9-0.4-7.3-0.8-11.9-0.9c-4.6-0.1-8.8 0.2-9.4 0.7c-0.5 0.5-0.6 1.5-0.3 2.1c0.3 0.7 1.2 1.1 1.8 0.8c0.9-0.4 1.9 1.9 3.2 7.2c1.1 4.3 3.9 13.4 6.3 20.3c3.8 11 4.1 12.7 2.8 14c-1.3 1.3-1.5 1.3-2.1-0.5c-0.4-1.1-1.4-3.6-2.2-5.5c-0.8-1.9-3.5-8.9-6.1-15.5c-2.6-6.6-5.3-14.1-7.1-21.5l-7.5 3l2.5-2c1.4-1.1 3.5-2.9 4.7-4c1.2-1.1 2.5-2 3-2c0.4 0 10-3 21.3-6.6c11.3-3.6 26.3-8.3 33.5-10.6c7.1-2.2 17-5.3 22-6.9c4.9-1.5 12.1-3.7 16-4.7c3.8-1.1 7.2-2 7.5-2.1zm-17.2 14.1c1.3 2.9 4.3 10.9 6.7 17.8c3.4 9.8 4.1 12.8 3.2 13.9c-1 1.1-0.6 1.2 2.5 0.7c2.4-0.4 3.6-0.2 3.3 0.4c-0.3 0.5-2.9 2.2-5.8 3.7c-4.1 2.1-5 2.3-4.5 1c0.7-1.5 0.4-1.6-3-0.6c-2 0.6-7.1 2.4-11.2 3.9c-4.1 1.6-13.8 4.7-21.5 6.9c-7.7 2.2-17.8 4.5-22.5 5.1c-4.7 0.5-8.6 0.8-8.8 0.7c-0.1-0.1 0.3-0.7 1-1.3c0.7-0.7 5.3-1.6 10.3-2.2c4.9-0.6 15.7-3.1 24-5.6c8.2-2.5 18.7-5.7 23.2-7.3c7.7-2.6 8.2-2.9 7.7-5.3c-0.3-1.4-2.5-8.4-4.7-15.7c-3.3-10.4-4.6-13.2-5.9-13c-0.9 0.1-1.6 0.5-1.5 0.8c0.1 0.3-3.9 3.6-8.8 7.4c-5 3.7-8.1 5.8-7 4.6c1.1-1.3 4.8-4.3 8.2-6.7c3.5-2.4 6.3-4.6 6.3-4.9c0-0.3-1.5 0.3-3.3 1.2c-1.7 0.9-6.4 3.7-10.2 6.3c-3.9 2.6-8.1 5.2-9.5 5.9c-2.4 1.1-2.4 1.1-0.5-0.4c1.1-0.9 6.3-4.4 11.5-7.8c5.2-3.4 11-6.9 12.8-7.7c1.9-0.9 3.2-2.1 3-3.1c-0.1-0.8 0.5-2.1 1.2-2.8c1.3-1 1.9-0.4 3.8 4.1zm-93.3 1.8c0.5 0 0.3 0.6-0.5 1.3c-0.8 0.8-5.3 2.8-10 4.5c-4.7 1.7-15.9 5.6-25 8.6c-9.1 3-21.7 7.7-28 10.4c-6.3 2.7-16.7 8.2-23 12.2c-6.3 4-11 6.7-10.3 5.9c0.6-0.8 6.2-4.6 12.5-8.6c6.2-3.9 16.5-9.4 22.8-12.1c6.3-2.7 21.8-8.4 34.5-12.6c12.6-4.3 23.7-8.2 24.5-8.7c0.8-0.4 1.9-0.9 2.5-0.9zm63.2 20.7c0.2 0.1-0.9 1.9-2.5 3.8c-1.5 2-2.9 3.3-3.2 3.1c-0.3-0.3 0.8-2 2.4-3.9c1.6-1.9 3.1-3.2 3.3-3zm-69.6 9.3c0.4 0 0.5 0.4 0.3 1c-0.2 0.5-2.1 1.7-4.2 2.6c-2 0.8-8 3.1-13.2 5c-5.2 2-17.4 6.2-27 9.5c-9.6 3.3-21.8 8.3-27 11c-5.2 2.7-12.9 7.4-17 10.5c-4.1 3-7.6 5.2-7.8 4.9c-0.1-0.3 4.2-3.6 9.5-7.4c5.4-3.7 14.1-9 19.3-11.6c5.2-2.6 17.8-7.6 28-11c10.2-3.5 22.3-7.8 27-9.5c4.7-1.7 9.2-3.6 10-4.1c0.8-0.4 1.8-0.9 2.1-0.9zm86.9 12.1c0.2-0.1-0.2 0.6-1 1.4c-0.8 0.8-8.3 3.5-16.5 6.1c-8.3 2.5-18.6 5.9-23 7.6c-4.4 1.7-8.6 3.6-9.3 4.2c-0.7 0.6-1.5 0.9-1.7 0.6c-0.3-0.3 0.3-1.2 1.2-2.1c1-0.9 5.8-3.1 10.8-4.9c4.9-1.9 15.7-5.5 24-8.1c8.2-2.6 15.2-4.7 15.5-4.8zm-180.3 2.9c0.2 0 0.3 0.1 0.3 0.2c0 0.2-1.9 2.1-8.5 8.3l4-4.3c2.1-2.3 4-4.2 4.2-4.2zm80 31c0.2 0 0.3 0.2 0.3 0.5c0 0.3-3.9 3.3-8.8 6.6c-4.8 3.4-10.7 7.7-17.7 13.1l4.1-3.9c2.2-2.1 8.1-6.6 13-10c4.9-3.4 9-6.2 9.1-6.3zm74.8 5.6c1.1 0.7 3.2 3.6 4.7 6.6c1.4 2.9 3.6 6.2 6.8 9.3l6.3-6.5c3.4-3.6 5.1-5.2 3.7-3.5c-1.4 1.6-4.3 4.9-6.5 7.3c-2.2 2.3-4.9 4.2-6 4.3c-1.1 0-2.7-0.8-3.5-1.7c-0.8-1-2.5-3.9-3.8-6.6c-1.2-2.6-3.2-5.5-4.5-6.4c-1.6-1.1-3.3-1.4-6.2-0.8c-2.2 0.3-8.2 2.7-22.6 9.9l-2.7-2.3c-1.5-1.2-4.3-3-6.2-3.8c-3.2-1.4-4.1-1.4-9.8 0c-3.4 0.9-8.6 2.5-16.7 5.5l2.5-2c1.4-1.1 4.1-2.5 6-3c1.9-0.6 6.2-1.9 9.5-2.8c4.1-1.1 7.1-1.4 9.5-0.9c1.9 0.4 4.6 1.9 6 3.3c1.4 1.3 3.3 2.5 4.2 2.5c1 0 5.5-1.9 10-4.2c4.6-2.3 10.3-4.4 12.8-4.8c2.8-0.3 5.3-0.1 6.5 0.6z" />
	</g>
</svg>