<?xml version="1.0" encoding="UTF-8"?>
<!DOCTYPE svg PUBLIC "-//W3C//DTD SVG 1.1//EN" "http://www.w3.org/Graphics/SVG/1.1/DTD/svg11.dtd">
<svg xmlns="http://www.w3.org/2000/svg" version="1.1" width="566px" height="560px" style="shape-rendering:geometricPrecision; text-rendering:geometricPrecision; image-rendering:optimizeQuality; fill-rule:evenodd; clip-rule:evenodd" xmlns:xlink="http://www.w3.org/1999/xlink">
<g><path style="opacity:1" fill="#fefefe" d="M -0.5,-0.5 C 188.167,-0.5 376.833,-0.5 565.5,-0.5C 565.5,186.167 565.5,372.833 565.5,559.5C 376.833,559.5 188.167,559.5 -0.5,559.5C -0.5,372.833 -0.5,186.167 -0.5,-0.5 Z"/></g>
<g><path style="opacity:1" fill="#131313" d="M 70.5,122.5 C 72.2941,120.203 74.2941,118.037 76.5,116C 82.8534,112.157 88.8534,107.823 94.5,103C 102.636,99.7643 110.636,96.2643 118.5,92.5C 119.901,87.5808 122.568,83.5808 126.5,80.5C 126.833,80.8333 127.167,81.1667 127.5,81.5C 126.03,84.273 124.697,87.1063 123.5,90C 123.833,90.5 124.167,91 124.5,91.5C 130.09,90.0928 135.757,89.5928 141.5,90C 145.432,91.4447 147.098,94.278 146.5,98.5C 145.383,105.353 143.549,112.02 141,118.5C 127.999,141.177 113.999,163.177 99,184.5C 87.6441,226.929 78.9774,269.929 73,313.5C 71.6487,315.019 70.1487,316.352 68.5,317.5C 68.1667,316.5 67.8333,315.5 67.5,314.5C 73.7137,274.053 81.547,234.053 91,194.5C 86.8045,200.064 81.3045,202.897 74.5,203C 73.6261,199.623 74.9594,197.123 78.5,195.5C 81.8364,197.948 85.1697,197.781 88.5,195C 90,192.833 91.5,190.667 93,188.5C 99.7396,157.948 107.906,127.781 117.5,98C 107.83,100.49 98.4966,104.157 89.5,109C 83.4598,114.01 77.1264,118.51 70.5,122.5 Z"/></g>
<g><path style="opacity:1" fill="#161616" d="M 336.5,178.5 C 327.975,190.857 317.308,201.024 304.5,209C 300.05,209.037 298.383,206.704 299.5,202C 300.293,193.284 302.127,184.784 305,176.5C 316.77,149.624 329.103,122.958 342,96.5C 342.495,94.5273 342.662,92.5273 342.5,90.5C 337.94,91.2981 333.606,92.7981 329.5,95C 321.212,100.953 313.212,107.286 305.5,114C 299.967,120.363 294.301,126.529 288.5,132.5C 295.786,122.463 304.12,113.297 313.5,105C 320.68,99.9093 327.68,94.5759 334.5,89C 338.96,86.9324 343.627,85.7657 348.5,85.5C 348.662,87.5273 348.495,89.5273 348,91.5C 334.707,117.708 322.373,144.375 311,171.5C 309.333,177.5 307.667,183.5 306,189.5C 305.333,193.833 305.333,198.167 306,202.5C 307.049,203.517 308.216,203.684 309.5,203C 312.672,201.248 315.672,199.248 318.5,197C 324.401,190.662 330.401,184.495 336.5,178.5 Z"/></g>
<g><path style="opacity:1" fill="#121212" d="M 288.5,132.5 C 281.21,142.213 273.543,151.713 265.5,161C 267.833,161.333 270.167,161.667 272.5,162C 273.357,162.689 274.023,163.522 274.5,164.5C 270.471,170.03 266.638,175.697 263,181.5C 261.296,183.373 259.463,185.04 257.5,186.5C 257.5,186.167 257.5,185.833 257.5,185.5C 261.141,180.185 264.808,174.851 268.5,169.5C 265.705,167.312 262.705,166.979 259.5,168.5C 257.544,166.852 255.211,166.185 252.5,166.5C 248.869,166.84 245.536,166.006 242.5,164C 241.903,162.938 241.57,161.772 241.5,160.5C 243.409,154.086 245.576,147.753 248,141.5C 256.089,129.389 259.756,116.056 259,101.5C 252.693,100.202 246.859,101.535 241.5,105.5C 238.767,114.658 236.6,123.991 235,133.5C 230.938,159.537 226.772,185.537 222.5,211.5C 221.475,211.897 221.308,212.563 222,213.5C 222.333,213.167 222.667,212.833 223,212.5C 223.48,214.133 224.313,215.466 225.5,216.5C 221.036,218.81 218.203,222.476 217,227.5C 215.235,229.774 213.068,231.441 210.5,232.5C 209.833,232.167 209.167,231.833 208.5,231.5C 204.52,223.637 202.02,215.304 201,206.5C 198.81,182.341 201.81,159.008 210,136.5C 205.626,140.379 201.126,144.046 196.5,147.5C 196.5,146.833 196.167,146.5 195.5,146.5C 201.436,141.739 207.269,136.739 213,131.5C 221.841,120.987 229.508,109.653 236,97.5C 237.571,95.0771 239.737,93.7438 242.5,93.5C 242.123,96.5248 241.956,99.5248 242,102.5C 248.784,97.0078 256.617,94.6745 265.5,95.5C 265.947,104.381 264.78,113.047 262,121.5C 255.771,132.285 250.938,143.618 247.5,155.5C 248.156,158.18 249.822,160.014 252.5,161C 256.167,161.667 259.833,161.667 263.5,161C 269.333,153.833 275.167,146.667 281,139.5C 283.37,136.961 285.87,134.628 288.5,132.5 Z"/></g>
<g><path style="opacity:1" fill="#f7f7f7" d="M 122.5,95.5 C 127.959,95.1033 133.292,95.6033 138.5,97C 141.265,99.5525 142.098,102.719 141,106.5C 138.405,111.951 136.405,117.618 135,123.5C 123.917,142.001 112.584,160.334 101,178.5C 102.139,169.467 103.806,160.467 106,151.5C 111.824,132.857 117.324,114.19 122.5,95.5 Z"/></g>
<g><path style="opacity:1" fill="#f9f9f9" d="M 252.5,166.5 C 254.042,167.163 255.709,167.83 257.5,168.5C 245.575,182.72 233.908,197.053 222.5,211.5C 226.772,185.537 230.938,159.537 235,133.5C 236.6,123.991 238.767,114.658 241.5,105.5C 246.859,101.535 252.693,100.202 259,101.5C 259.756,116.056 256.089,129.389 248,141.5C 245.576,147.753 243.409,154.086 241.5,160.5C 241.57,161.772 241.903,162.938 242.5,164C 245.536,166.006 248.869,166.84 252.5,166.5 Z"/></g>
<g><path style="opacity:1" fill="#090909" d="M 195.5,146.5 C 196.167,146.5 196.5,146.833 196.5,147.5C 194.463,149.53 192.13,151.196 189.5,152.5C 188.717,180.502 187.884,208.502 187,236.5C 185.799,239.71 183.799,242.377 181,244.5C 182.075,222.396 182.908,200.23 183.5,178C 183.5,170.326 183.166,162.826 182.5,155.5C 181.833,155.5 181.5,155.167 181.5,154.5C 182.636,152.954 183.302,151.121 183.5,149C 184.966,135.472 184.799,121.972 183,108.5C 182.617,107.944 182.117,107.611 181.5,107.5C 181.5,106.833 181.167,106.5 180.5,106.5C 182.623,102.315 185.456,101.315 189,103.5C 189.333,118.833 189.667,134.167 190,149.5C 191.78,148.361 193.614,147.361 195.5,146.5 Z"/></g>
<g><path style="opacity:1" fill="#cecece" d="M 234.5,104.5 C 235.867,106.093 235.534,107.426 233.5,108.5C 233.167,108.333 232.833,108.167 232.5,108C 233.305,106.887 233.972,105.721 234.5,104.5 Z"/></g>
<g><path style="opacity:1" fill="#171717" d="M 404.5,185.5 C 404.5,185.167 404.5,184.833 404.5,184.5C 421.713,164.736 430.547,141.736 431,115.5C 430.215,113.714 429.049,112.214 427.5,111C 422.167,110.333 416.833,110.333 411.5,111C 403.752,115.223 396.085,118.723 388.5,121.5C 389.648,119.851 390.981,118.351 392.5,117C 400.779,113.527 408.779,109.527 416.5,105C 421.833,104.333 427.167,104.333 432.5,105C 436.761,108.105 438.428,112.271 437.5,117.5C 434.481,144.201 423.481,166.867 404.5,185.5 Z"/></g>
<g><path style="opacity:1" fill="#131313" d="M 180.5,106.5 C 181.167,106.5 181.5,106.833 181.5,107.5C 170.999,126.338 161.666,145.838 153.5,166C 153.667,166.5 153.833,167 154,167.5C 163.113,163.027 172.279,158.693 181.5,154.5C 181.5,155.167 181.833,155.5 182.5,155.5C 180.684,157.137 178.684,158.637 176.5,160C 167.769,163.782 159.269,167.949 151,172.5C 139.111,205.838 129.444,239.838 122,274.5C 120.649,276.019 119.149,277.352 117.5,278.5C 119.999,262.479 123.499,246.479 128,230.5C 133.822,210.892 139.655,191.559 145.5,172.5C 143.802,173.681 142.135,173.681 140.5,172.5C 142.438,168.893 145.438,166.893 149.5,166.5C 157.791,145.246 168.124,125.246 180.5,106.5 Z"/></g>
<g><path style="opacity:1" fill="#f5f5f5" d="M 181.5,107.5 C 182.117,107.611 182.617,107.944 183,108.5C 184.799,121.972 184.966,135.472 183.5,149C 183.302,151.121 182.636,152.954 181.5,154.5C 172.279,158.693 163.113,163.027 154,167.5C 153.833,167 153.667,166.5 153.5,166C 161.666,145.838 170.999,126.338 181.5,107.5 Z"/></g>
<g><path style="opacity:1" fill="#f9f9f9" d="M 233.5,110.5 C 234.097,110.735 234.43,111.235 234.5,112C 227.981,144.315 222.481,176.815 218,209.5C 217.004,214.656 215.504,219.656 213.5,224.5C 210.274,217.161 208.107,209.495 207,201.5C 203.655,175.57 207.655,150.903 219,127.5C 222.603,120.734 227.437,115.067 233.5,110.5 Z"/></g>
<g><path style="opacity:1" fill="#171717" d="M 392.5,196.5 C 392.833,196.5 393.167,196.5 393.5,196.5C 392.375,198.129 391.041,199.629 389.5,201C 382.833,204.667 376.167,208.333 369.5,212C 365.726,213.183 362.559,212.349 360,209.5C 359.47,203.796 359.803,198.129 361,192.5C 367.719,173.342 374.219,154.176 380.5,135C 378.024,135.747 375.691,137.081 373.5,139C 363.967,149.365 354.3,159.532 344.5,169.5C 349.143,164.015 353.643,158.348 358,152.5C 366.613,143.887 375.279,135.221 384,126.5C 384.781,127.729 385.281,129.062 385.5,130.5C 380.05,149.686 373.883,168.686 367,187.5C 365.803,193.129 365.47,198.796 366,204.5C 368.841,206.504 372.007,207.004 375.5,206C 381.162,202.835 386.829,199.669 392.5,196.5 Z"/></g>
<g><path style="opacity:1" fill="#2e2e2e" d="M 70.5,122.5 C 64.4264,128.91 57.7598,134.577 50.5,139.5C 56.5736,133.09 63.2402,127.423 70.5,122.5 Z"/></g>
<g><path style="opacity:1" fill="#212121" d="M 50.5,139.5 C 43.4445,146.221 37.1111,153.555 31.5,161.5C 30.479,160.998 30.3123,160.332 31,159.5C 34.3847,155.783 37.3847,151.783 40,147.5C 43.2902,144.452 46.7902,141.785 50.5,139.5 Z"/></g>
<g><path style="opacity:1" fill="#f9f9f9" d="M 257.5,185.5 C 252.167,190.167 247.167,195.167 242.5,200.5C 237.039,204.789 231.706,209.289 226.5,214C 225.517,214.591 224.85,214.257 224.5,213C 235.567,197.7 247.234,182.867 259.5,168.5C 262.705,166.979 265.705,167.312 268.5,169.5C 264.808,174.851 261.141,180.185 257.5,185.5 Z"/></g>
<g><path style="opacity:1" fill="#3e3e3e" d="M 344.5,169.5 C 342.57,173.1 339.903,176.1 336.5,178.5C 338.43,174.9 341.097,171.9 344.5,169.5 Z"/></g>
<g><path style="opacity:1" fill="#737373" d="M 404.5,184.5 C 404.5,184.833 404.5,185.167 404.5,185.5C 401.167,189.5 397.5,193.167 393.5,196.5C 393.167,196.5 392.833,196.5 392.5,196.5C 396.167,192.167 400.167,188.167 404.5,184.5 Z"/></g>
<g><path style="opacity:1" fill="#555555" d="M 257.5,185.5 C 257.5,185.833 257.5,186.167 257.5,186.5C 253.167,191.5 248.5,196.167 243.5,200.5C 243.167,200.5 242.833,200.5 242.5,200.5C 247.167,195.167 252.167,190.167 257.5,185.5 Z"/></g>
<g><path style="opacity:1" fill="#222222" d="M 252.5,166.5 C 255.211,166.185 257.544,166.852 259.5,168.5C 247.234,182.867 235.567,197.7 224.5,213C 224.85,214.257 225.517,214.591 226.5,214C 231.706,209.289 237.039,204.789 242.5,200.5C 242.833,200.5 243.167,200.5 243.5,200.5C 237.823,206.176 231.823,211.509 225.5,216.5C 224.313,215.466 223.48,214.133 223,212.5C 222.667,212.833 222.333,213.167 222,213.5C 221.308,212.563 221.475,211.897 222.5,211.5C 233.908,197.053 245.575,182.72 257.5,168.5C 255.709,167.83 254.042,167.163 252.5,166.5 Z"/></g>
<g><path style="opacity:1" fill="#131313" d="M 393.5,325.5 C 390.941,325.802 388.607,325.468 386.5,324.5C 387.812,323.855 388.812,322.855 389.5,321.5C 399.828,320.084 410.161,318.751 420.5,317.5C 421.622,300.795 413.955,294.295 397.5,298C 389.244,300.279 388.577,298.946 395.5,294C 403.43,291.376 411.43,291.043 419.5,293C 426.103,298.979 428.436,306.479 426.5,315.5C 436.884,314.087 447.217,312.254 457.5,310C 463.142,299.881 468.642,289.715 474,279.5C 476.713,275.908 479.547,272.408 482.5,269C 483.5,268.333 484.5,268.333 485.5,269C 487.863,278.973 489.03,289.14 489,299.5C 489.5,300.5 490,301.5 490.5,302.5C 497.859,302.628 505.192,302.628 512.5,302.5C 511.352,304.149 510.019,305.649 508.5,307C 502.87,307.966 497.204,308.633 491.5,309C 496.044,318.619 500.21,328.452 504,338.5C 506.447,342.197 505.947,345.364 502.5,348C 501.365,348.749 500.365,348.583 499.5,347.5C 494.982,334.773 489.982,322.273 484.5,310C 476.326,310.052 468.326,311.385 460.5,314C 457.744,321.678 454.577,329.178 451,336.5C 451.641,342.025 449.474,346.025 444.5,348.5C 444.167,348.167 443.833,347.833 443.5,347.5C 447.586,337.083 451.586,326.583 455.5,316C 445.706,316.157 436.039,317.49 426.5,320C 419.942,335.544 412.109,350.377 403,364.5C 400.129,369.558 401.295,373.058 406.5,375C 422.274,377.329 437.941,376.662 453.5,373C 465.574,370.02 477.574,366.853 489.5,363.5C 490.282,365.329 489.616,366.829 487.5,368C 467.191,374.195 446.525,378.862 425.5,382C 415.943,383.074 406.609,382.074 397.5,379C 395.556,376.847 395.056,374.347 396,371.5C 404.111,358.279 411.445,344.612 418,330.5C 418.953,327.568 419.453,324.568 419.5,321.5C 410.893,323.16 402.226,324.493 393.5,325.5 Z"/></g>
<g><path style="opacity:1" fill="#f7f7f7" d="M 482.5,297.5 C 482.868,300.533 482.202,303.2 480.5,305.5C 474.149,306.891 467.815,308.058 461.5,309C 467.475,298.215 473.308,287.381 479,276.5C 481.868,283.204 483.035,290.204 482.5,297.5 Z"/></g>
<g><path style="opacity:1" fill="#131313" d="M 185.5,356.5 C 185.5,356.167 185.5,355.833 185.5,355.5C 189.992,349.864 194.492,344.197 199,338.5C 201.727,332.046 204.727,325.712 208,319.5C 209.179,313.199 209.513,306.865 209,300.5C 207.985,297.898 206.152,296.065 203.5,295C 191.602,294.393 180.602,297.393 170.5,304C 167.562,327.107 165.062,350.274 163,373.5C 168.264,370.727 173.097,367.393 177.5,363.5C 177.833,363.5 178.167,363.5 178.5,363.5C 173.79,368.537 168.457,372.871 162.5,376.5C 161.227,383.779 160.393,391.112 160,398.5C 159.667,416.833 159.333,435.167 159,453.5C 157.961,454.71 156.794,455.71 155.5,456.5C 154.833,453.5 154.167,450.5 153.5,447.5C 153.333,433.163 153.5,418.829 154,404.5C 154.351,396.759 155.185,389.092 156.5,381.5C 155.998,380.479 155.332,380.312 154.5,381C 147.581,385.376 140.748,389.876 134,394.5C 133.833,394.167 133.667,393.833 133.5,393.5C 141.068,387.466 148.901,381.799 157,376.5C 159.065,355.656 161.232,334.823 163.5,314C 163.167,312.5 162.833,311 162.5,309.5C 148.214,317.293 135.214,326.793 123.5,338C 122.668,338.688 122.002,338.521 121.5,337.5C 123.65,334.849 125.983,332.349 128.5,330C 139.892,321.609 151.559,313.609 163.5,306C 165.412,302.478 166.579,298.645 167,294.5C 168.333,293.167 169.667,291.833 171,290.5C 171.278,294.194 171.278,297.861 171,301.5C 178.614,296.516 186.781,292.683 195.5,290C 200.167,289.333 204.833,289.333 209.5,290C 212.152,291.065 213.985,292.898 215,295.5C 215.513,301.865 215.179,308.199 214,314.5C 210.727,320.712 207.727,327.046 205,333.5C 198.957,341.609 192.457,349.276 185.5,356.5 Z"/></g>
<g><path style="opacity:1" fill="#171717" d="M 346.5,358.5 C 347.167,362.167 347.833,365.833 348.5,369.5C 349.587,372.465 351.754,373.799 355,373.5C 358.763,373.135 362.263,371.968 365.5,370C 382.576,357.432 399.242,344.266 415.5,330.5C 415.833,330.667 416.167,330.833 416.5,331C 399.413,346.091 381.746,360.424 363.5,374C 358.369,377.688 352.703,379.355 346.5,379C 344.448,378.07 342.948,376.57 342,374.5C 341.667,371.167 341.333,367.833 341,364.5C 320.483,382.428 297.15,395.428 271,403.5C 265.91,403.151 264.243,400.485 266,395.5C 276.444,369.943 287.444,344.61 299,319.5C 301.599,312.538 304.099,305.538 306.5,298.5C 304.477,297.959 302.477,298.459 300.5,300C 285.624,310.933 270.957,322.1 256.5,333.5C 256.5,332.833 256.167,332.5 255.5,332.5C 271.289,320.551 286.955,308.384 302.5,296C 305.377,294.298 308.377,292.798 311.5,291.5C 311.833,292 312.167,292.5 312.5,293C 308.425,307.555 302.591,321.389 295,334.5C 287.315,353.197 279.649,371.863 272,390.5C 271.242,392.769 271.409,394.936 272.5,397C 275.5,397.667 278.5,397.667 281.5,397C 305.403,387.724 327.069,374.891 346.5,358.5 Z"/></g>
<g><path style="opacity:1" fill="#fcfcfc" d="M 185.5,355.5 C 182.5,357.833 179.833,360.5 177.5,363.5C 173.097,367.393 168.264,370.727 163,373.5C 165.062,350.274 167.562,327.107 170.5,304C 180.602,297.393 191.602,294.393 203.5,295C 206.152,296.065 207.985,297.898 209,300.5C 209.513,306.865 209.179,313.199 208,319.5C 204.727,325.712 201.727,332.046 199,338.5C 194.492,344.197 189.992,349.864 185.5,355.5 Z"/></g>
<g><path style="opacity:1" fill="#1b1b1b" d="M 388.5,268.5 C 390.028,268.517 390.528,269.184 390,270.5C 368.638,292.177 349.971,315.844 334,341.5C 333.743,338.983 334.41,336.65 336,334.5C 341,327.167 346,319.833 351,312.5C 363.71,297.961 376.21,283.294 388.5,268.5 Z"/></g>
<g><path style="opacity:1" fill="#707070" d="M 482.5,297.5 C 483.473,299.948 483.806,302.615 483.5,305.5C 482.5,305.5 481.5,305.5 480.5,305.5C 482.202,303.2 482.868,300.533 482.5,297.5 Z"/></g>
<g><path style="opacity:1" fill="#090909" d="M 255.5,332.5 C 256.167,332.5 256.5,332.833 256.5,333.5C 255.542,333.953 254.708,334.619 254,335.5C 253.661,363.582 251.994,391.582 249,419.5C 248.438,422.872 246.938,425.705 244.5,428C 243.517,428.591 242.85,428.257 242.5,427C 246.246,397.95 248.08,368.783 248,339.5C 247.617,340.056 247.117,340.389 246.5,340.5C 246.5,340.167 246.5,339.833 246.5,339.5C 247.763,333.855 247.597,328.188 246,322.5C 244.905,318.866 242.738,317.866 239.5,319.5C 239.5,319.167 239.5,318.833 239.5,318.5C 243.54,312.751 247.707,312.418 252,317.5C 253.026,322.785 253.693,328.118 254,333.5C 254.383,332.944 254.883,332.611 255.5,332.5 Z"/></g>
<g><path style="opacity:1" fill="#f7f7f7" d="M 246.5,339.5 C 236.795,345.026 227.462,351.192 218.5,358C 217.668,358.688 217.002,358.521 216.5,357.5C 222.605,343.764 230.271,331.097 239.5,319.5C 242.738,317.866 244.905,318.866 246,322.5C 247.597,328.188 247.763,333.855 246.5,339.5 Z"/></g>
<g><path style="opacity:1" fill="#747474" d="M 386.5,324.5 C 388.607,325.468 390.941,325.802 393.5,325.5C 390.976,326.8 388.309,326.8 385.5,325.5C 385.624,324.893 385.957,324.56 386.5,324.5 Z"/></g>
<g><path style="opacity:1" fill="#151515" d="M 239.5,318.5 C 239.5,318.833 239.5,319.167 239.5,319.5C 230.271,331.097 222.605,343.764 216.5,357.5C 217.002,358.521 217.668,358.688 218.5,358C 227.462,351.192 236.795,345.026 246.5,339.5C 246.5,339.833 246.5,340.167 246.5,340.5C 235.847,348.304 225.014,355.97 214,363.5C 205.917,386.083 199.25,409.083 194,432.5C 192.649,434.019 191.149,435.352 189.5,436.5C 189.167,436 188.833,435.5 188.5,435C 193.617,412.196 200.284,389.863 208.5,368C 208.167,367.5 207.833,367 207.5,366.5C 201.795,370.033 195.962,373.367 190,376.5C 188.563,374.779 189.063,373.279 191.5,372C 198.252,368.902 204.752,365.402 211,361.5C 218.041,345.384 227.541,331.05 239.5,318.5 Z"/></g>
<g><path style="opacity:1" fill="#717171" d="M 185.5,355.5 C 185.5,355.833 185.5,356.167 185.5,356.5C 183.5,359.167 181.167,361.5 178.5,363.5C 178.167,363.5 177.833,363.5 177.5,363.5C 179.833,360.5 182.5,357.833 185.5,355.5 Z"/></g>
<g><path style="opacity:1" fill="#797979" d="M 346.5,358.5 C 346.56,357.957 346.893,357.624 347.5,357.5C 348.491,361.445 348.824,365.445 348.5,369.5C 347.833,365.833 347.167,362.167 346.5,358.5 Z"/></g>
<g><path style="opacity:1" fill="#7a7a7a" d="M 153.5,447.5 C 154.167,450.5 154.833,453.5 155.5,456.5C 155.44,457.043 155.107,457.376 154.5,457.5C 153.513,454.232 153.18,450.898 153.5,447.5 Z"/></g>
</svg>
