<?xml version="1.0" encoding="UTF-8"?>
<!DOCTYPE svg PUBLIC "-//W3C//DTD SVG 1.1//EN" "http://www.w3.org/Graphics/SVG/1.1/DTD/svg11.dtd">
<svg xmlns="http://www.w3.org/2000/svg" version="1.1" width="1744px" height="1520px" style="shape-rendering:geometricPrecision; text-rendering:geometricPrecision; image-rendering:optimizeQuality; fill-rule:evenodd; clip-rule:evenodd" xmlns:xlink="http://www.w3.org/1999/xlink">
<g><path style="opacity:1" fill="none" d="M -0.5,-0.5 C 580.833,-0.5 1162.17,-0.5 1743.5,-0.5C 1743.5,506.167 1743.5,1012.83 1743.5,1519.5C 1162.17,1519.5 580.833,1519.5 -0.5,1519.5C -0.5,1012.83 -0.5,506.167 -0.5,-0.5 Z"/></g>
<g><path style="opacity:1" fill="#FFFFFF" d="M 945.5,99.5 C 951.017,100.847 954.85,104.18 957,109.5C 957.731,127.455 955.731,145.121 951,162.5C 949.065,179.788 947.731,197.121 947,214.5C 943.528,226.568 940.695,238.735 938.5,251C 938.833,251.333 939.167,251.667 939.5,252C 937.44,259.409 935.606,266.909 934,274.5C 933.099,282.579 933.432,290.579 935,298.5C 937,301.167 939.667,302.5 943,302.5C 958.292,300.042 972.792,295.208 986.5,288C 998.33,279.582 1010.66,271.915 1023.5,265C 1033.51,263.133 1042.85,264.799 1051.5,270C 1056.17,273.333 1060.83,276.667 1065.5,280C 1072.17,287.333 1078.83,294.667 1085.5,302C 1096.17,310.667 1106.83,319.333 1117.5,328C 1127.96,333.021 1138.29,338.188 1148.5,343.5C 1152.66,343.592 1154.99,341.592 1155.5,337.5C 1155.12,335.617 1154.12,334.117 1152.5,333C 1149.17,332.211 1146,331.044 1143,329.5C 1141.72,326.866 1142.06,324.199 1144,321.5C 1149.57,315.258 1155.74,309.758 1162.5,305C 1167.76,303.561 1173.1,303.228 1178.5,304C 1184.08,305.319 1187.24,308.819 1188,314.5C 1188.63,320.774 1187.63,327.108 1185,333.5C 1176.76,347.756 1166.26,360.256 1153.5,371C 1146.45,376.615 1139.12,376.948 1131.5,372C 1125.8,371.145 1120.13,370.145 1114.5,369C 1083.72,353.231 1057.39,331.897 1035.5,305C 1029.03,299.874 1022.03,295.541 1014.5,292C 1010.07,291.209 1005.74,291.543 1001.5,293C 991.169,298.497 981.169,304.497 971.5,311C 963.955,314.939 956.288,318.606 948.5,322C 937.296,324.457 926.296,327.624 915.5,331.5C 906.566,329.723 902.232,324.223 902.5,315C 903.25,302.253 905.416,289.753 909,277.5C 909.461,265.783 911.794,254.449 916,243.5C 917.602,212.838 921.435,182.338 927.5,152C 926.691,146.583 926.191,141.083 926,135.5C 925.626,134.584 925.126,133.75 924.5,133C 922.167,132.333 919.833,132.333 917.5,133C 914.833,135 912.167,137 909.5,139C 900.347,143.077 891.347,147.41 882.5,152C 878.352,155.904 874.019,159.571 869.5,163C 834.767,184.364 801.434,207.697 769.5,233C 760.902,237.881 752.735,243.381 745,249.5C 743.843,253.346 745.009,256.179 748.5,258C 757.166,258.428 765.833,259.094 774.5,260C 778.243,261.136 781.91,262.47 785.5,264C 791.451,267.785 791.951,272.285 787,277.5C 780.136,284.698 772.97,291.532 765.5,298C 747.829,303.906 730.829,302.239 714.5,293C 708.929,286.758 702.762,281.258 696,276.5C 693.606,270.724 692.939,264.724 694,258.5C 698.079,241.439 702.412,224.439 707,207.5C 709.758,199.551 713.091,191.885 717,184.5C 721.8,178.698 726.967,173.198 732.5,168C 740.43,165.261 743.263,168.094 741,176.5C 737.885,181.844 735.552,187.511 734,193.5C 729.944,208.556 726.444,223.722 723.5,239C 723.961,251.084 729.294,253.751 739.5,247C 745.134,240.364 751.134,234.031 757.5,228C 783.577,212.296 808.243,194.629 831.5,175C 847.827,163.834 864.494,153.168 881.5,143C 891.346,135.909 901.013,128.576 910.5,121C 915.875,119.432 920.875,117.099 925.5,114C 931.28,107.687 937.947,102.853 945.5,99.5 Z"/></g>
<g><path style="opacity:1" fill="#FFFFFF" d="M 371.5,290.5 C 378.503,289.673 381.003,292.673 379,299.5C 364.196,315.305 349.029,330.805 333.5,346C 318.661,354.587 303.661,362.92 288.5,371C 282.04,380.082 276.206,389.582 271,399.5C 266.077,426.233 263.41,453.233 263,480.5C 262.226,484.147 261.559,487.814 261,491.5C 258.14,536.452 256.806,581.452 257,626.5C 254.959,635.111 253.792,643.611 253.5,652C 252.683,659.754 252.183,667.588 252,675.5C 250.024,682.379 248.691,689.379 248,696.5C 246.861,700.112 245.194,703.446 243,706.5C 238.167,711.333 233.333,716.167 228.5,721C 222.142,726.206 216.642,725.372 212,718.5C 209.382,712.028 207.382,705.362 206,698.5C 204.367,681.508 202.867,664.508 201.5,647.5C 201.836,634.15 202.002,620.484 202,606.5C 206.454,561.175 213.121,516.175 222,471.5C 225.667,463.5 229.333,455.5 233,447.5C 234.04,439.208 235.54,431.041 237.5,423C 236.315,407.89 238.148,393.057 243,378.5C 248.788,369.045 256.288,361.212 265.5,355C 275.522,356.136 285.189,354.47 294.5,350C 301.216,344.283 308.216,338.95 315.5,334C 327.162,320.66 340.829,309.994 356.5,302C 361.685,298.303 366.685,294.47 371.5,290.5 Z"/></g>
<g><path style="opacity:1" fill="#FFFFFF" d="M 521.5,293.5 C 528.834,293.999 535.834,295.832 542.5,299C 552.432,304.604 562.099,310.604 571.5,317C 587.161,318.748 602.495,322.081 617.5,327C 625.124,328.096 632.791,328.762 640.5,329C 646.133,331.705 646.967,335.538 643,340.5C 630.541,354.431 615.041,359.598 596.5,356C 592.376,361.077 588.876,366.577 586,372.5C 581.425,377.746 576.258,382.246 570.5,386C 567.15,386.93 564.317,386.097 562,383.5C 557.333,374.833 552.667,366.167 548,357.5C 542.847,346.583 534.181,340.916 522,340.5C 509.466,343.122 497.299,346.956 485.5,352C 474.271,360.224 463.937,369.557 454.5,380C 449.431,384.055 445.765,383.222 443.5,377.5C 451.966,354.055 465.299,333.888 483.5,317C 495.805,308.359 508.471,300.526 521.5,293.5 Z"/></g>
<g><path style="opacity:1" fill="none" d="M 493.5,325.5 C 498.156,324.972 499.323,326.638 497,330.5C 494.349,333.076 491.182,334.409 487.5,334.5C 487.357,332.738 487.691,331.071 488.5,329.5C 490.21,328.113 491.877,326.779 493.5,325.5 Z"/></g>
<g><path style="opacity:1" fill="#FFFFFF" d="M 776.5,507.5 C 779.864,506.789 782.197,507.956 783.5,511C 781.822,516.196 779.989,521.362 778,526.5C 777.667,531.5 777.333,536.5 777,541.5C 769.096,582.688 762.096,624.021 756,665.5C 755,684.5 754,703.5 753,722.5C 748.794,739.289 746.96,756.122 747.5,773C 748.782,790.303 751.282,807.47 755,824.5C 756.594,829.752 759.594,830.752 764,827.5C 770.78,811.271 779.113,795.938 789,781.5C 794.833,775.667 800.667,769.833 806.5,764C 814.032,758.796 820.865,759.629 827,766.5C 835.994,781.47 842.661,797.47 847,814.5C 848.674,819.935 849.841,825.435 850.5,831C 849.827,833.859 848.993,836.692 848,839.5C 842.468,847.377 835.468,853.377 827,857.5C 823.36,856.526 821.026,854.193 820,850.5C 815.59,834.77 810.09,819.437 803.5,804.5C 800.277,800.622 797.11,800.622 794,804.5C 789.716,814.732 785.716,825.065 782,835.5C 779.507,841.157 776.507,846.49 773,851.5C 764.833,859.667 756.667,867.833 748.5,876C 738.296,883.47 731.13,881.303 727,869.5C 722.532,842.317 719.032,814.984 716.5,787.5C 717.69,774.007 719.856,760.673 723,747.5C 723.972,728.498 724.972,709.498 726,690.5C 731.279,654.702 737.279,619.035 744,583.5C 745.623,572.522 746.956,561.522 748,550.5C 751.333,542.5 754.667,534.5 758,526.5C 763.698,519.636 769.865,513.303 776.5,507.5 Z"/></g>
<g><path style="opacity:1" fill="#FFFFFF" d="M 1016.5,594.5 C 1022.84,594.334 1029.18,594.5 1035.5,595C 1042,597.291 1048.67,598.958 1055.5,600C 1058.03,600.516 1060.2,601.683 1062,603.5C 1066.12,609.199 1067.79,615.532 1067,622.5C 1063.06,633.057 1058.56,643.39 1053.5,653.5C 1055.96,656.72 1059.13,657.387 1063,655.5C 1064.5,656 1066,656.5 1067.5,657C 1071.5,662 1075.5,667 1079.5,672C 1085.73,677.78 1093.06,681.447 1101.5,683C 1113.32,684.322 1125.16,684.822 1137,684.5C 1145.11,683.848 1152.94,682.014 1160.5,679C 1171.95,678.699 1182.95,676.366 1193.5,672C 1206.92,666.203 1220.08,660.036 1233,653.5C 1258.88,661.847 1285.05,669.347 1311.5,676C 1323.51,677.09 1335.51,678.257 1347.5,679.5C 1350.01,679.208 1352.51,678.874 1355,678.5C 1363.48,679.227 1371.98,679.727 1380.5,680C 1389.17,682 1397.83,684 1406.5,686C 1445.21,688.787 1483.87,691.787 1522.5,695C 1526.31,698.273 1526.48,701.773 1523,705.5C 1516.49,714.37 1507.82,719.37 1497,720.5C 1456.17,717.334 1415.34,714.168 1374.5,711C 1358.98,706.115 1343.14,704.615 1327,706.5C 1311.29,703.65 1295.45,701.817 1279.5,701C 1256.41,693.636 1232.91,688.136 1209,684.5C 1200.75,686.532 1192.58,689.032 1184.5,692C 1172.56,699.425 1159.56,703.425 1145.5,704C 1119.09,712.515 1092.43,713.515 1065.5,707C 1059.95,704.06 1054.29,701.394 1048.5,699C 1044.88,698.159 1041.55,698.826 1038.5,701C 1023.67,714.145 1011.51,729.312 1002,746.5C 996.904,753.019 991.571,759.352 986,765.5C 981.667,772.5 977.333,779.5 973,786.5C 965.167,794.333 957.333,802.167 949.5,810C 945.39,812.619 942.39,811.785 940.5,807.5C 943.042,801.041 945.876,794.708 949,788.5C 955.627,780.204 962.627,772.204 970,764.5C 973.667,757.167 977.333,749.833 981,742.5C 1002.01,715.172 1020.01,685.839 1035,654.5C 1038.92,644.436 1037.09,635.602 1029.5,628C 1019.52,625.338 1009.52,622.671 999.5,620C 994.872,617.553 994.372,614.386 998,610.5C 1003.47,604.18 1009.64,598.847 1016.5,594.5 Z"/></g>
<g><path style="opacity:1" fill="#FFFFFF" d="M 356.5,763.5 C 374.964,760.824 389.797,766.824 401,781.5C 406.138,790.156 406.805,799.156 403,808.5C 400.48,816.537 397.147,824.204 393,831.5C 383.167,841.333 373.333,851.167 363.5,861C 354.938,866.947 345.605,871.28 335.5,874C 334.54,875.419 333.707,876.919 333,878.5C 330.542,899.863 328.876,921.863 328,944.5C 326.663,1033.2 327.663,1121.86 331,1210.5C 334.676,1233.53 338.509,1256.53 342.5,1279.5C 342.314,1286.21 340.147,1292.21 336,1297.5C 332.167,1301.33 328.333,1305.17 324.5,1309C 319.491,1312.95 315.657,1312.12 313,1306.5C 308.873,1282.86 304.873,1259.2 301,1235.5C 300.227,1205.4 298.894,1175.07 297,1144.5C 296.788,1088.84 296.788,1033.17 297,977.5C 298.483,954.973 300.316,932.473 302.5,910C 299.013,884.779 302.513,860.612 313,837.5C 315.169,822.659 319.169,808.326 325,794.5C 332.765,781.234 343.265,770.901 356.5,763.5 Z"/></g>
<g><path style="opacity:1" fill="#FFFFFF" d="M 571.5,768.5 C 579.45,767.414 586.783,768.914 593.5,773C 600.407,779.236 606.573,786.069 612,793.5C 618.927,805.024 626.594,816.024 635,826.5C 636.589,835.73 634.256,844.063 628,851.5C 622.429,857.742 616.262,863.242 609.5,868C 606.217,868.743 603.217,868.076 600.5,866C 592.649,859.905 584.982,853.572 577.5,847C 568.29,840.891 558.29,838.891 547.5,841C 538.708,845.064 529.708,848.564 520.5,851.5C 511.259,850.031 507.759,844.697 510,835.5C 513.881,825.405 518.548,815.739 524,806.5C 532.833,796.333 542.333,786.833 552.5,778C 558.378,773.727 564.712,770.561 571.5,768.5 Z"/></g>
<g><path style="opacity:1" fill="none" d="M 349.5,794.5 C 365.085,796.923 373.752,806.089 375.5,822C 375.783,832.466 371.116,839.466 361.5,843C 353.822,843.277 346.156,842.944 338.5,842C 336.438,840.468 335.104,838.468 334.5,836C 336.532,827.905 339.366,820.072 343,812.5C 343.176,805.678 345.342,799.678 349.5,794.5 Z"/></g>
<g><path style="opacity:1" fill="none" d="M 552.5,796.5 C 560.559,796.109 566.393,799.442 570,806.5C 570.536,808.567 570.036,810.401 568.5,812C 562.748,814.474 557.081,817.14 551.5,820C 542.293,823.315 538.46,820.148 540,810.5C 542.134,803.819 546.301,799.152 552.5,796.5 Z"/></g>
</svg>
