<?xml version="1.0" standalone="no"?>
<!DOCTYPE svg PUBLIC "-//W3C//DTD SVG 20010904//EN"
 "http://www.w3.org/TR/2001/REC-SVG-20010904/DTD/svg10.dtd">
<svg version="1.0" xmlns="http://www.w3.org/2000/svg"
 width="1080.000000pt" height="1080.000000pt" viewBox="0 0 1080.000000 1080.000000"
 preserveAspectRatio="xMidYMid meet">
<metadata>
Created by potrace 1.14, written by Peter Selinger 2001-2017
</metadata>
<g transform="translate(0.000000,1080.000000) scale(0.100000,-0.100000)"
fill="#000000" stroke="none">
<path d="M0 5400 l0 -5400 5400 0 5400 0 0 5400 0 5400 -5400 0 -5400 0 0
-5400z m5900 4556 c63 -8 165 -26 225 -40 61 -13 137 -28 170 -31 33 -4 69
-13 80 -20 11 -6 38 -18 60 -24 22 -7 54 -19 72 -27 17 -8 36 -14 41 -14 18 0
286 -141 322 -170 19 -15 49 -34 65 -43 39 -19 286 -268 298 -299 4 -13 16
-32 26 -43 46 -51 141 -205 141 -230 0 -5 9 -21 20 -35 11 -14 20 -34 20 -44
0 -10 9 -40 21 -65 12 -25 31 -68 44 -96 13 -27 26 -72 29 -100 3 -27 22 -101
41 -162 31 -103 35 -127 40 -280 5 -112 12 -186 23 -223 15 -49 17 -125 17
-670 0 -545 -2 -621 -17 -670 -11 -37 -18 -112 -23 -229 -4 -116 -12 -190 -22
-220 -29 -86 -63 -216 -63 -244 0 -15 -9 -45 -20 -65 -30 -58 -58 -124 -66
-157 -21 -85 -158 -308 -265 -430 -89 -101 -302 -295 -325 -295 -3 0 -36 -17
-72 -39 -37 -21 -78 -42 -91 -46 -13 -4 -50 -22 -81 -41 -32 -19 -82 -39 -111
-45 -30 -6 -59 -15 -65 -20 -25 -20 -161 -58 -232 -64 -42 -4 -99 -16 -125
-26 -28 -11 -73 -19 -110 -19 -34 0 -89 -5 -122 -11 -35 -6 -222 -10 -450 -9
-322 0 -399 -2 -439 -15 -28 -8 -54 -21 -58 -28 -4 -6 -8 -808 -8 -1780 l0
-1768 -25 -24 -24 -25 -644 0 c-530 0 -647 2 -656 14 -8 10 -11 1176 -11 4440
0 2435 2 4432 6 4437 3 5 461 9 1127 9 920 0 1143 -3 1237 -14z"/>
<path d="M5010 8721 c-60 -9 -106 -35 -114 -63 -11 -43 -7 -2613 5 -2646 7
-20 21 -34 41 -41 20 -7 165 -11 412 -11 316 1 388 3 421 16 22 8 55 20 74 26
19 5 51 19 70 29 20 10 39 19 43 19 14 0 93 59 124 92 60 64 115 166 125 231
6 34 15 67 20 73 6 7 15 43 21 81 5 37 14 95 20 128 7 36 12 299 15 652 3 559
2 599 -17 714 -11 66 -20 131 -20 144 0 12 -9 42 -20 66 -11 24 -20 59 -20 78
0 45 -75 173 -139 238 -27 27 -75 62 -107 77 -33 16 -72 35 -89 43 -16 8 -64
24 -105 36 -67 18 -108 21 -395 23 -176 1 -340 -1 -365 -5z"/>
</g>
</svg>
